<?xml version="1.0" standalone="no"?>
<!DOCTYPE svg PUBLIC "-//W3C//DTD SVG 1.1//EN" "http://www.w3.org/Graphics/SVG/1.1/DTD/svg11.dtd" >
<svg xmlns="http://www.w3.org/2000/svg" xmlns:xlink="http://www.w3.org/1999/xlink" version="1.1">
<metadata>
Created by FontForge 20161003 at Wed Aug 28 11:44:26 2019
 By www-data
Design and data by The Monotype Corporation. (c) 1993. Microsoft Corporation. All rights reserved.
</metadata>
<defs>
<font id="PERTILI" horiz-adv-x="1409" >
  <font-face 
    font-family="PERTILI"
    font-weight="300"
    font-stretch="normal"
    units-per-em="2048"
    panose-1="2 2 5 2 6 5 5 2 8 4"
    ascent="1638"
    descent="-410"
    x-height="1473"
    cap-height="1473"
    bbox="-369 -457 2071 1966"
    underline-thickness="102"
    underline-position="-323"
    unicode-range="U+0020-F002"
  />
<missing-glyph horiz-adv-x="1024" 
d="M82 1365h860v-1365h-860v1365zM123 1324v-1283h778v1283h-778z" />
    <glyph glyph-name=".notdef" horiz-adv-x="1024" 
d="M82 1365h860v-1365h-860v1365zM123 1324v-1283h778v1283h-778z" />
    <glyph glyph-name=".null" horiz-adv-x="0" 
 />
    <glyph glyph-name="nonmarkingreturn" horiz-adv-x="683" 
 />
    <glyph glyph-name="space" unicode=" " horiz-adv-x="683" 
 />
    <glyph glyph-name="exclam" unicode="!" horiz-adv-x="342" 
d="M178 348h-12q-5 35 -12 118t-11 122q0 22 -19.5 250t-29.5 321l-5 52t-5 83q0 156 86 156q80 0 80 -139q0 -32 -3.5 -82t-4.5 -74q-14 -133 -21 -276q-1 -1 -7.5 -87.5t-10.5 -132t-6 -75.5q-14 -160 -19 -236zM170 -39q-38 0 -64 26t-26 64q0 39 25.5 65.5t64.5 26.5
q40 0 66 -26t26 -66q0 -39 -26.5 -64.5t-65.5 -25.5z" />
    <glyph glyph-name="quotedbl" unicode="&#x22;" horiz-adv-x="575" 
d="M63 1049v14q64 42 91.5 103.5t27.5 115.5q0 59 -20 59h-51q-32 6 -51 31t-19 60q0 42 27 63t63 21t66 -22.5t47.5 -63t17.5 -91.5q0 -92 -54 -173.5t-145 -116.5zM342 1049v14q62 42 89.5 105t27.5 114q0 59 -21 59q-15 0 -31 -0.5t-20 0.5q-31 6 -50.5 31t-19.5 60
q0 41 28 62.5t63 21.5q57 0 95 -50t38 -127q0 -92 -54 -173.5t-145 -116.5z" />
    <glyph glyph-name="numbersign" unicode="#" horiz-adv-x="1024" 
d="M424 954h256l57 424h97l-58 -424h209l-12 -94h-211l-49 -373h211l-13 -94h-213l-57 -426h-96l57 426h-254l-59 -426h-96l59 426h-211l12 94h211l51 373h-204l12 94h205l59 424h96zM666 860h-254l-52 -373h256z" />
    <glyph glyph-name="dollar" unicode="$" horiz-adv-x="1110" 
d="M592 -123h-88v98q-106 0 -172 19q-122 33 -146 33q-47 0 -47 -37h-14v368h14q10 -86 39 -155t107 -121t219 -59v684q-154 79 -241 146.5t-122 134.5t-35 151q0 106 75 225t323 139v103h88v-103q90 -11 225 -45q33 -8 60 -8q32 0 41 35h14v-357h-14q-59 285 -326 318v-615
q148 -79 236 -139t142 -142t54 -190q0 -43 -10.5 -94.5t-52.5 -116t-132 -114t-237 -60.5v-98zM592 659v-636q147 3 227 82.5t80 185.5q0 124 -84.5 209.5t-222.5 158.5zM504 881v569q-89 -13 -151.5 -55.5t-92 -98.5t-29.5 -110q0 -92 64.5 -157.5t208.5 -147.5z" />
    <glyph glyph-name="percent" unicode="%" horiz-adv-x="1772" 
d="M649 1110q0 89 -29.5 173t-84 135.5t-129.5 51.5q-116 0 -178 -118.5t-62 -239.5q0 -90 31 -173t86.5 -134t124.5 -51t124.5 51.5t86 135.5t30.5 169zM774 1110q0 -113 -51.5 -206t-135 -144t-177.5 -51q-87 0 -173.5 48t-141 139.5t-54.5 215.5q0 131 56.5 222.5
t142.5 136.5t170 45q90 0 174 -49t137 -142t53 -215zM1354 1516l-852 -1526h-70l852 1526h70zM1729 381q0 -113 -52 -206t-136 -144t-179 -51q-86 0 -172 48t-140.5 139t-54.5 214q0 132 56 223.5t142.5 136.5t170.5 45q89 0 173.5 -48.5t138 -141t53.5 -215.5zM1604 381
q0 69 -15.5 131t-46.5 114t-77 83.5t-105 31.5q-80 0 -134 -59.5t-80 -142.5t-26 -156q0 -90 31.5 -173.5t87.5 -134t123 -50.5q69 0 124.5 51t86.5 135.5t31 169.5z" />
    <glyph glyph-name="ampersand" unicode="&#x26;" horiz-adv-x="1493" 
d="M1440 965v-17q-74 -3 -120 -30t-81.5 -85t-73.5 -155q-43 -110 -74 -175.5t-54 -102.5t-44 -66q7 -6 75 -68t116 -106q109 -92 169.5 -117t121.5 -27v-16h-312q-172 137 -256 217q-57 -75 -173.5 -161.5t-274.5 -86.5q-85 0 -156.5 29t-126.5 83.5t-84 122t-29 140.5
q0 142 87 253.5t212 193.5l-14 14q-91 102 -142.5 187.5t-51.5 178.5q0 90 48.5 169.5t134.5 127.5t193 48q140 0 226 -78t86 -191q0 -127 -98.5 -225.5t-237.5 -183.5q51 -59 160 -170l145 -152q85 -89 150 -149q53 82 114.5 233t61.5 246q0 62 -32.5 81t-82.5 21v17h418z
M479 872q106 68 172 143t66 183q0 64 -30 124t-87 97t-129 37q-100 0 -152.5 -59t-52.5 -140q0 -55 32.5 -126.5t82 -138.5t98.5 -120zM389 756q-207 -139 -207 -328q0 -97 53 -177.5t138 -125.5t172 -45q76 0 139 27t106 62t87 79q-86 82 -131.5 127.5t-96 97.5t-106 112
t-154.5 171z" />
    <glyph glyph-name="quotesingle" unicode="'" horiz-adv-x="299" 
d="M61 1049v14q64 42 91.5 103.5t27.5 115.5q0 59 -20 59h-51q-32 6 -51 31t-19 60q0 42 27 63t63 21t66 -22.5t47.5 -63t17.5 -91.5q0 -92 -54 -173.5t-145 -116.5z" />
    <glyph glyph-name="parenleft" unicode="(" horiz-adv-x="618" 
d="M610 1516l8 -11q-124 -102 -202.5 -221.5t-118 -275.5t-39.5 -363q0 -296 87.5 -499t272.5 -355l-8 -12q-122 82 -236.5 198.5t-198 289t-83.5 380.5q0 248 133 475q43 71 79 117.5t76.5 87t94.5 85t135 104.5z" />
    <glyph glyph-name="parenright" unicode=")" horiz-adv-x="618" 
d="M8 -221l-8 12q94 76 162 163.5t111.5 189.5t65 227t21.5 274q0 207 -39.5 363t-119 277t-201.5 220l8 11q104 -78 168.5 -133.5t117.5 -119t99 -141.5q68 -113 100.5 -231.5t32.5 -243.5q0 -300 -159 -517t-359 -351z" />
    <glyph glyph-name="asterisk" unicode="*" horiz-adv-x="874" 
d="M305 993l-90 -86q-15 -15 -40 -32t-46 -17q-23 0 -44.5 20.5t-21.5 47.5q0 35 37 55.5t146 50.5q95 30 151 58q-5 12 0 24q-34 20 -74.5 33.5t-154.5 44.5q-105 27 -105 86q0 26 19 47t43 21q21 0 43.5 -13.5t71.5 -62.5q92 -94 166 -137q10 8 22 10q-17 117 -49 239
q-1 9 -5.5 29t-4.5 35q0 26 16.5 48t52.5 22q30 0 47 -21t17 -49q0 -35 -8 -70l-29 -102q-19 -78 -19 -131q11 -2 21 -10q55 32 154 129q79 81 120 81q19 0 42.5 -15.5t23.5 -51.5q0 -30 -21.5 -47t-80.5 -35q-157 -44 -230 -80q5 -12 0 -24q79 -35 227 -78q107 -32 107 -88
q0 -29 -23 -47.5t-43 -18.5q-27 0 -60 26.5t-105 98.5q-62 61 -111 90q-10 -8 -21 -10q0 -53 19 -119q25 -95 32 -129t7 -63q0 -23 -16 -45.5t-52 -22.5q-27 0 -45 19t-18 51q0 27 10 77q2 7 11 44t14 53q16 67 20 135q-11 2 -22 10q-49 -30 -101 -80z" />
    <glyph glyph-name="plus" unicode="+" horiz-adv-x="1124" 
d="M506 1092h112v-482h486v-112h-486v-498h-112v498h-486v112h486v482z" />
    <glyph glyph-name="comma" unicode="," horiz-adv-x="299" 
d="M61 -297v12q2 1 33.5 29.5t57.5 80.5t26 120q0 55 -16 55q-1 0 -15 -4l-16 -4q-37 0 -64.5 25t-27.5 65q0 38 28 64t66 26q31 0 61 -22.5t48 -62.5t18 -89q0 -100 -51 -175t-148 -120z" />
    <glyph glyph-name="hyphen" unicode="-" horiz-adv-x="641" 
d="M55 772h529v-82h-529v82z" />
    <glyph glyph-name="period" unicode="." horiz-adv-x="299" 
d="M147 -39q-38 0 -64 26t-26 64q0 39 25.5 65.5t64.5 26.5t66 -26t27 -66q0 -39 -27.5 -64.5t-65.5 -25.5z" />
    <glyph glyph-name="slash" unicode="/" horiz-adv-x="641" 
d="M569 1473l-452 -1473h-47l452 1473h47z" />
    <glyph glyph-name="zero" unicode="0" horiz-adv-x="1366" 
d="M1282 735q0 -168 -48.5 -308t-134 -245.5t-194.5 -163t-223 -57.5q-107 0 -213.5 52.5t-194.5 152.5t-140 245t-52 324q0 251 91.5 428.5t231 265t277.5 87.5q148 0 286.5 -95t226 -273t87.5 -413zM1112 735q0 175 -48 341.5t-145.5 272t-236.5 105.5q-137 0 -235.5 -117
t-146.5 -286.5t-48 -315.5q0 -169 48.5 -333.5t146 -271.5t235.5 -107q114 0 212.5 98t158 263t59.5 351z" />
    <glyph glyph-name="one" unicode="1" horiz-adv-x="618" 
d="M236 176v987q0 98 -5 120t-32 22q-18 0 -127 -37v16q63 32 106 59.5t84.5 66.5t91.5 106h33v-1340q0 -85 40 -122.5t122 -37.5v-16h-477v16q164 0 164 160z" />
    <glyph glyph-name="two" unicode="2" horiz-adv-x="1153" 
d="M1044 0h-962q50 43 159 150.5t209 215.5t144 169q135 183 180 296.5t45 206.5q0 85 -28.5 153t-75 111t-107.5 66t-125 23q-56 0 -121 -21.5t-125.5 -77.5t-93.5 -149h-30q16 81 68 166t149 146t231 61q131 0 226 -58t143.5 -150t48.5 -196q0 -124 -60.5 -253.5
t-156.5 -247.5t-202.5 -220.5t-250.5 -228.5l-33 -29h650q61 0 98.5 25t67.5 80h16z" />
    <glyph glyph-name="three" unicode="3" horiz-adv-x="1024" 
d="M113 1518h14q11 -31 55 -31q9 0 39 5t35 5q84 19 160 19q103 0 193 -44.5t145 -125.5t55 -187q0 -56 -23.5 -132.5t-85.5 -133.5q-74 -69 -221 -105v-4q168 -11 264.5 -79t132 -153.5t35.5 -162.5q0 -91 -37 -169.5t-103.5 -136.5t-150.5 -90t-176 -32
q-129 0 -212.5 49.5t-161.5 124.5v74q91 -91 174.5 -129.5t177.5 -38.5q139 0 208.5 73.5t86 150t16.5 132.5q0 127 -54.5 203t-113.5 111q-18 11 -57 20.5t-75 14t-66 4.5h-136v53h74q175 0 266 94q84 85 84 248q0 97 -32.5 169t-92.5 113t-141 41q-112 0 -168.5 -64
t-93.5 -153h-14v267z" />
    <glyph glyph-name="four" unicode="4" horiz-adv-x="1300" 
d="M846 1511v-829h399v-90h-399v-414q0 -90 46.5 -126t108.5 -38v-14h-464v14q66 2 111.5 38t45.5 126v414h-655l752 919h55zM186 682h508v623h-4z" />
    <glyph glyph-name="five" unicode="5" horiz-adv-x="1024" 
d="M954 1473l-20 -111h-504l-104 -606q75 14 143 14q114 0 209.5 -51.5t150 -141t54.5 -192.5q0 -111 -55.5 -208t-160 -156.5t-237.5 -59.5q-108 0 -188 36.5t-174 113.5v73q67 -58 140 -96.5t189 -38.5q108 0 177 48t100 123t31 155q0 98 -39 176t-112.5 122t-170.5 44
q-55 0 -98 -11t-119 -40l139 807h649z" />
    <glyph glyph-name="six" unicode="6" horiz-adv-x="1174" 
d="M1012 1516v-35q-94 -16 -180.5 -44.5t-183 -94.5t-175.5 -177q-96 -134 -140 -279t-50 -325l4 -4q37 77 121.5 147t238.5 70q124 0 219 -54t145 -145t50 -196q0 -85 -33 -161t-96 -134.5t-149.5 -90.5t-186.5 -32q-126 0 -220.5 47.5t-154.5 130t-87.5 182t-27.5 201.5
q0 52 12 134.5t43.5 182.5t94 208t160.5 206q140 140 292 192.5t304 70.5zM283 483q-2 -113 32.5 -223.5t110 -182t192.5 -71.5q118 0 199.5 83.5t81.5 242.5q0 99 -40 184t-110.5 135.5t-160.5 50.5q-85 0 -168.5 -50t-136.5 -169z" />
    <glyph glyph-name="seven" unicode="7" horiz-adv-x="1130" 
d="M1073 1473l-651 -1498h-146l603 1387h-412q-160 0 -242 -38t-129 -138h-16l45 287h948z" />
    <glyph glyph-name="eight" unicode="8" horiz-adv-x="1110" 
d="M668 782l28 -18q87 -55 125.5 -82t83.5 -73t75 -110.5t30 -142.5q0 -101 -56.5 -192.5t-165.5 -147t-264 -55.5q-146 0 -241.5 53t-139 130.5t-43.5 156.5q0 95 46 170.5t127.5 136t193.5 113.5q-185 106 -251 201.5t-66 199.5q0 94 47 184.5t145 150t242 59.5
q127 0 218.5 -50t137 -129t45.5 -168q0 -112 -56 -192t-125.5 -123.5t-135.5 -71.5zM483 891l117 -70l3 -1.5l7 -3.5t13 -7q73 39 120 82.5t72 105.5t25 152q0 157 -80.5 236t-194.5 79q-70 0 -133 -30t-103 -92.5t-40 -155.5q0 -68 35.5 -144.5t158.5 -150.5zM512 696
q-67 -38 -122.5 -84t-94.5 -121t-39 -182q0 -136 72.5 -222.5t220.5 -86.5q151 0 235 85t84 214q0 93 -38 156t-101.5 108t-202.5 125q-2 2 -4.5 3l-5 2t-4.5 3z" />
    <glyph glyph-name="nine" unicode="9" horiz-adv-x="1153" 
d="M141 -39v35q93 16 179.5 43.5t183.5 94t176 177.5q96 133 140 279.5t50 324.5l-4 5q-38 -79 -121 -148.5t-239 -69.5q-187 0 -300.5 116.5t-113.5 279.5q0 85 33.5 161t95.5 134.5t149 90.5t187 32q129 0 223.5 -48t153 -129t86 -179.5t27.5 -205.5q0 -51 -10.5 -128
t-43 -181t-96 -214.5t-160.5 -207.5q-99 -99 -210 -154t-197 -75t-189 -33zM870 993q2 113 -32.5 223.5t-110 182t-192.5 71.5q-120 0 -200.5 -83t-80.5 -242q0 -98 40 -184t110.5 -136.5t160.5 -50.5q85 0 169.5 50.5t135.5 168.5z" />
    <glyph glyph-name="colon" unicode=":" horiz-adv-x="299" 
d="M150 -39q-39 0 -65 26t-26 64q0 39 25.5 65.5t65.5 26.5t66 -26t26 -66q0 -39 -26.5 -64.5t-65.5 -25.5zM150 612q-39 0 -65 26t-26 64t25.5 65.5t65.5 27.5t66 -27t26 -66t-26.5 -64.5t-65.5 -25.5z" />
    <glyph glyph-name="semicolon" unicode=";" horiz-adv-x="299" 
d="M61 -297v12q2 1 33.5 29.5t57.5 80.5t26 120q0 55 -16 55q-1 0 -15 -4l-16 -4q-37 0 -64.5 25t-27.5 65q0 38 28 64t66 26q31 0 61 -22.5t48 -62.5t18 -89q0 -100 -51 -175t-148 -120zM143 612q-38 0 -64 26t-26 64t25.5 65.5t64.5 27.5t66 -27t27 -66t-27.5 -64.5
t-65.5 -25.5z" />
    <glyph glyph-name="less" unicode="&#x3c;" horiz-adv-x="1124" 
d="M53 471v127l1018 471v-127l-887 -407l887 -408v-127z" />
    <glyph glyph-name="equal" unicode="=" horiz-adv-x="1124" 
d="M1100 799v-113h-1077v113h1077zM1100 401v-112h-1077v112h1077z" />
    <glyph glyph-name="greater" unicode="&#x3e;" horiz-adv-x="1124" 
d="M1071 598v-127l-1018 -471v127l887 408l-887 407v127z" />
    <glyph glyph-name="question" unicode="?" horiz-adv-x="618" 
d="M37 1204l-12 6q36 96 95.5 167t176.5 71q78 0 139 -37t95 -102t34 -142q0 -92 -40 -167.5t-150 -223.5q-58 -77 -91 -137t-47.5 -128t-11.5 -167h-14q-6 38 -6 111q0 95 20.5 159.5t79.5 153.5q74 112 102.5 176.5t28.5 151.5q0 79 -33 131.5t-82.5 77t-97.5 24.5
q-46 0 -100 -26t-86 -99zM238 -39q-39 0 -65 26t-26 64q0 39 25.5 65.5t65.5 26.5t66 -26t26 -66q0 -39 -26.5 -64.5t-65.5 -25.5z" />
    <glyph glyph-name="at" unicode="@" horiz-adv-x="1704" 
d="M950 163q-58 -82 -124.5 -124t-123.5 -42q-120 0 -202 109q-99 132 -99 340q0 168 71 327.5t168 235t190 75.5q68 0 133 -46t112 -138l27 155h148l-119 -671q-24 -139 -24 -155q0 -29 17 -47.5t40 -18.5q44 0 125 70t136 203.5t55 282.5q0 178 -77 322t-212.5 225
t-294.5 81q-189 0 -342 -102t-248.5 -303.5t-95.5 -460.5q0 -244 86 -415t245.5 -260t378.5 -89q197 0 346.5 82.5t227.5 219.5h148q-49 -121 -161.5 -231.5t-248.5 -164.5t-313 -54q-259 0 -440 104t-285.5 306.5t-104.5 487.5q0 303 115 549t290.5 361.5t409.5 115.5
q196 0 352.5 -96t251 -278.5t94.5 -403.5q0 -300 -174 -527q-147 -192 -320 -192q-82 0 -116.5 40.5t-41.5 126.5zM553 434q0 -138 54.5 -213.5t122.5 -75.5q58 0 128 58.5t120 182.5t50 261q0 140 -56 214t-135 74q-61 0 -122.5 -52t-111.5 -186t-50 -263z" />
    <glyph glyph-name="A" unicode="A" 
d="M745 1491l441 -1262q35 -98 66 -142t59.5 -55.5t72.5 -15.5v-16h-481v16q74 0 114 14t40 76q0 34 -19 91q-4 8 -4 12l-131 391h-510l-117 -362q-24 -74 -24 -119q0 -62 31 -82.5t88 -20.5v-16h-346v16q74 7 118.5 56.5t77.5 150.5l416 1268h108zM410 653h469l-240 699h-4
z" />
    <glyph glyph-name="B" unicode="B" horiz-adv-x="1174" 
d="M623 0h-551v16h20q56 0 96.5 40.5t40.5 121.5v1112q0 79 -37.5 122.5t-101.5 43.5h-18v17h481q95 0 175 -27.5t135.5 -76t85.5 -110t30 -133.5q0 -133 -86 -216t-231 -122v-4q66 -7 127 -21t110 -39t92 -65q39 -36 66 -79t41 -93.5t14 -103.5q0 -115 -59.5 -198
t-134.5 -126q-107 -59 -295 -59zM381 797h96q118 0 168 24q32 16 66.5 44t66 88t31.5 145q0 66 -21 125.5t-61 105.5t-95 72t-120 26q-57 0 -131 -22v-608zM532 752h-151v-531q0 -53 10.5 -88.5t57.5 -61.5t145 -26q203 0 289 135q59 93 59 209q0 84 -29.5 152t-81 113.5
t-129.5 71.5t-170 26z" />
    <glyph glyph-name="C" unicode="C" horiz-adv-x="1473" 
d="M1403 1143h-17q-19 108 -101.5 183t-189.5 109.5t-200 34.5q-127 0 -238.5 -53.5t-192.5 -151t-126 -234t-45 -296.5q0 -155 43.5 -287.5t127 -230t193.5 -147.5t244 -50q112 0 246 45.5t242 151.5v-57q-133 -103 -243.5 -151t-275.5 -48q-174 0 -317.5 63.5
t-242.5 171.5t-150 243t-51 278q0 215 106 399.5t287 292t393 107.5q131 0 279 -39l104 -29q30 -6 51 -6q39 0 52 11.5t20 41.5h16z" />
    <glyph glyph-name="D" unicode="D" horiz-adv-x="1599" 
d="M76 1456v17h567q119 0 219.5 -20.5t180 -54.5t137.5 -74.5t98 -82.5q70 -70 119 -155.5t73.5 -180.5t24.5 -196t-24 -192t-69 -168.5t-107.5 -140.5t-145.5 -114q-71 -42 -163 -68t-249 -26h-661v16h20q69 0 103 52t34 110v1112q0 56 -18.5 94t-49.5 55t-69 17h-20z
M385 1403v-1167q0 -86 27.5 -126.5t85.5 -52.5t170 -12q160 0 270 31.5t213 140.5q76 81 122 198t46 283q0 131 -37 259.5t-113 228.5q-85 113 -218.5 177t-321.5 64q-97 0 -244 -24z" />
    <glyph glyph-name="E" unicode="E" horiz-adv-x="1044" 
d="M72 1456v17h878v-232h-14q0 186 -248 186h-307v-669h270q80 0 143 26t72 119h15v-334h-15q-9 57 -34 87.5t-49.5 40.5t-43.5 10q-36 6 -75 6h-283v-523q0 -59 22.5 -102t104.5 -43h219q79 0 130 23t80.5 64t49.5 99h14l-51 -231h-878v16h20q47 0 92 38t45 124v1110
q0 68 -30.5 118t-106.5 50h-20z" />
    <glyph glyph-name="F" unicode="F" horiz-adv-x="1044" 
d="M70 1456v17h884v-224h-16q-6 69 -50.5 123.5t-152.5 54.5h-354v-667h330q94 0 128 38.5t44 106.5h16v-334h-16q-6 63 -41.5 103.5t-130.5 40.5h-330v-537q0 -73 42 -117.5t101 -44.5h21v-16h-475v16h20q60 0 99.5 45t39.5 117v1114q0 95 -43 129.5t-96 34.5h-20z" />
    <glyph glyph-name="G" unicode="G" horiz-adv-x="1599" 
d="M1421 1167h-16q-32 144 -170 223.5t-315 79.5q-92 0 -197.5 -28.5t-205.5 -103.5t-166 -217.5t-66 -358.5q0 -344 160.5 -550t515.5 -206q140 0 206 19t84.5 52t18.5 89v270q0 96 -41.5 127t-124.5 41v17h479v-17q-66 -7 -102 -28.5t-48 -55.5t-12 -90v-410
q-220 -59 -454 -59q-121 0 -239 20t-246 89t-226 204q-147 203 -147 459q0 149 55.5 290t160 252.5t255.5 176t335 64.5q71 0 139 -9.5t203 -38.5q53 -12 76 -12q49 0 72 49h16v-338z" />
    <glyph glyph-name="H" unicode="H" horiz-adv-x="1599" 
d="M1223 799v493q0 72 -39 118t-121 46v17h469v-17q-82 0 -120 -45.5t-38 -118.5v-1114q0 -162 158 -162v-16h-469v16q75 0 117.5 40.5t42.5 119.5v578h-844v-576q0 -77 43.5 -119.5t116.5 -42.5v-16h-469v16q76 0 116.5 42.5t40.5 119.5v1114q0 164 -157 164v17h469v-17
q-83 0 -121.5 -45.5t-38.5 -118.5v-493h844z" />
    <glyph glyph-name="I" unicode="I" horiz-adv-x="618" 
d="M543 1473v-17q-66 0 -112 -37t-46 -123v-1118q0 -85 49 -123.5t109 -38.5v-16h-467v16q64 0 110.5 37.5t46.5 124.5v1118q0 92 -46.5 126t-110.5 34v17h467z" />
    <glyph glyph-name="J" unicode="J" horiz-adv-x="725" 
d="M342 123v1169q0 159 -158 164v17h465v-17q-66 -2 -110.5 -40t-44.5 -124v-1208q0 -101 -27.5 -173t-72.5 -114t-97.5 -60t-106.5 -18q-61 0 -107.5 19t-79 46.5t-66.5 65.5l10 11q83 -68 184 -68q137 0 174 95t37 235z" />
    <glyph glyph-name="K" unicode="K" horiz-adv-x="1366" 
d="M1290 1473v-17q-62 -4 -109.5 -15t-95.5 -55q-35 -33 -47.5 -44t-27.5 -25l-502 -496l600 -678q70 -78 119.5 -98t126.5 -29v-16h-318l-659 745v-567q0 -157 158 -162v-16h-467v16q44 2 78 16.5t56.5 50t22.5 95.5v1118q0 93 -46.5 125.5t-110.5 34.5v17h467v-17
q-158 -5 -158 -160v-544l565 565q0 -2 4 6q47 43 47 74q0 35 -27.5 44t-82.5 15v17h407z" />
    <glyph glyph-name="L" unicode="L" horiz-adv-x="1024" 
d="M76 16h20q54 0 95.5 42.5t41.5 119.5v1112q0 92 -46.5 128t-110.5 38v17h471v-17q-62 -2 -110 -37t-48 -129v-1075q0 -96 48 -133t157 -37h127q83 0 132.5 20t78.5 61t59 116h17l-56 -242h-876v16z" />
    <glyph glyph-name="M" unicode="M" horiz-adv-x="1749" 
d="M1636 1473v-17q-42 -5 -60 -8.5t-40 -20.5q-34 -26 -42.5 -49t-10.5 -80q-3 -9 0 -18l51 -1094q2 -69 33 -119t135 -51v-16h-477v16q94 10 127 54.5t28 138.5l-51 1132h-4l-520 -1341l-492 1292h-4l-53 -1044q-4 -86 10.5 -133.5t46.5 -68t95 -30.5v-16h-371v16
q71 1 108 34t48.5 82.5t17.5 135.5l59 1080q0 6 -12 21.5t-29.5 31t-33.5 24.5q-34 21 -59 24.5t-70 6.5v17h342l456 -1205l463 1205h309z" />
    <glyph glyph-name="N" unicode="N" horiz-adv-x="1665" 
d="M1599 1473v-17q-56 -7 -88.5 -21.5t-50.5 -57t-18 -122.5v-1292h-10l-1131 1262v-906q0 -113 9 -168t26 -79q37 -52 129 -56v-16h-369v16q62 3 96.5 26.5t49 86t14.5 188.5v961l-49 55q-65 74 -104 93.5t-97 29.5v17h277l1114 -1248v951q0 107 -8.5 160t-45 85t-114.5 35
v17h370z" />
    <glyph glyph-name="O" unicode="O" horiz-adv-x="1772" 
d="M1663 735q0 -207 -102.5 -385t-279.5 -283.5t-392 -105.5q-216 0 -396 105.5t-283.5 284.5t-103.5 390q0 162 61.5 304.5t172 248.5t252 164t295.5 58q151 0 290 -55.5t249.5 -160.5t173.5 -249t63 -316zM1487 731q0 294 -104 460t-240 222.5t-256 56.5q-93 0 -193 -30.5
t-194.5 -111.5t-155.5 -228t-61 -363q0 -190 50.5 -331.5t139 -231t195 -129t221.5 -39.5q103 0 208.5 36.5t193 119t142 224t54.5 345.5z" />
    <glyph glyph-name="P" unicode="P" horiz-adv-x="1110" 
d="M78 1456v17h483q121 0 213.5 -33t154 -90t92 -128.5t30.5 -150.5q0 -77 -28.5 -148.5t-89.5 -127t-160 -88.5t-228 -33q-41 0 -158 12v-508q0 -157 160 -162v-16h-469v16q69 2 113.5 39.5t44.5 122.5v1114q0 51 -16 85t-37.5 48.5t-48 21.5t-36.5 9h-20zM387 1421v-694
q77 -14 152 -14q143 0 242.5 73.5t99.5 272.5q0 164 -87.5 269.5t-265.5 105.5q-69 0 -141 -13z" />
    <glyph glyph-name="Q" unicode="Q" horiz-adv-x="1772" 
d="M1720 -18l23 -15q-96 -110 -188 -179t-203 -69q-35 0 -70 6t-88.5 24t-124.5 52q-123 58 -338 168q-2 2 -24 13q-85 26 -123.5 40.5t-100.5 50t-124.5 93.5t-116.5 137q-42 61 -73 134.5t-47 152t-16 151.5q0 219 109 397.5t288.5 278t385.5 99.5q158 0 300.5 -60
t249 -167.5t165.5 -249t59 -300.5q0 -156 -62.5 -305t-181.5 -262q-54 -51 -99 -82t-87.5 -51t-88.5 -34.5t-89 -24.5v-5q6 0 43 -20q133 -76 194 -92.5t133 -16.5q89 0 144.5 28t138.5 99q2 0 6.5 4.5t5.5 4.5zM1487 729q0 220 -60 367.5t-152.5 228.5t-192.5 113t-195 32
q-98 0 -199.5 -33t-195 -116t-151.5 -226.5t-58 -349.5q0 -201 53 -346.5t145 -234.5q58 -55 126 -90t141.5 -50.5t144.5 -15.5q127 0 237.5 47t186.5 135q170 198 170 539z" />
    <glyph glyph-name="R" unicode="R" horiz-adv-x="1343" 
d="M90 1452h-20v21h510q123 0 208.5 -38t133 -96.5t68 -123.5t20.5 -128q0 -80 -33.5 -153.5t-103 -126.5t-173.5 -72v-4q132 -64 244 -254l133 -225q90 -151 144.5 -191t107.5 -45v-16h-268q-17 22 -32 42.5t-32 43.5q-10 15 -29.5 45.5t-23.5 34.5l-176 291
q-53 89 -108.5 144.5t-103.5 79.5t-86.5 30t-90.5 6v-539q0 -157 160 -162v-16h-469v16q44 2 78 16.5t56.5 50t22.5 95.5v1114q0 88 -43 124t-94 36zM379 756h84q132 0 216.5 38t122.5 108.5t38 172.5q0 85 -34 166.5t-115.5 137t-219.5 55.5q-56 0 -92 -9v-669z" />
    <glyph glyph-name="S" unicode="S" horiz-adv-x="961" 
d="M831 1190h-16q-14 107 -93.5 187.5t-209.5 80.5q-85 0 -151 -40t-102 -109t-36 -158q0 -69 21.5 -122.5t63.5 -94.5t99 -76.5t154 -89.5q162 -89 252 -177.5t90 -242.5q0 -94 -48.5 -181.5t-146.5 -143.5t-243 -56q-91 0 -161 19.5t-142 54.5q-30 10 -41 10
q-21 0 -27.5 -15t-17.5 -65h-17v369h17q36 -162 140 -245t253 -83q112 0 179.5 42t93.5 102t26 120q0 124 -75.5 202.5t-229.5 160.5q-106 58 -157 90t-103.5 83t-83.5 120.5t-31 159.5q0 104 55 199t156 152.5t229 57.5q97 0 199 -33q16 -8 43 -8q33 0 45 45h16v-315z" />
    <glyph glyph-name="T" unicode="T" horiz-adv-x="1366" 
d="M1331 1186h-16q-11 144 -84 186.5t-180 42.5h-293v-1237q0 -157 160 -162v-16h-469v16q66 2 111.5 38.5t45.5 123.5v1237h-293q-107 0 -179.5 -42.5t-84.5 -186.5h-16v360h16q16 -25 28 -37t31 -20.5t44.5 -12t60.5 -3.5h954q95 0 148 73h16v-360z" />
    <glyph glyph-name="U" unicode="U" horiz-adv-x="1599" 
d="M1528 0h-309v244l-5 4q-64 -149 -191.5 -218t-266.5 -69q-157 0 -282.5 75t-184.5 185q-42 78 -53 162.5t-11 175.5v733q0 66 -26.5 111t-126.5 53v17h463v-17q-102 -12 -130 -59t-28 -105v-721q0 -220 45 -325q48 -112 144 -175t218 -63q51 0 121 18t131 60
q183 125 183 401v805q0 61 -28 108t-132 56v17h471v-17q-102 -5 -131 -57t-29 -105v-1116q0 -58 19.5 -91.5t54 -47.5t84.5 -23v-16z" />
    <glyph glyph-name="V" unicode="V" 
d="M1386 1473v-17q-56 -7 -93 -38t-63 -80.5t-59 -131.5q-5 -5 -10 -24l-426 -1221h-14l-502 1321q0 4 -4 12q-29 85 -76.5 124t-118.5 38v17h484v-17q-61 -6 -98 -24t-37 -86q0 -18 16 -74q2 -5 3.5 -10.5t2.5 -8.5l387 -1034h4l332 963q35 99 35 149q0 79 -33.5 100
t-99.5 25v17h370z" />
    <glyph glyph-name="W" unicode="W" horiz-adv-x="2091" 
d="M2071 1473v-17q-45 -9 -80 -33.5t-69 -81t-71 -163.5l-413 -1217h-15l-376 1217h-5l-409 -1217h-15l-419 1342q-23 71 -55 103t-58.5 39.5t-65.5 10.5v17h457v-17q-60 -4 -90.5 -36t-30.5 -79q0 -36 17 -90l311 -995h4l334 995l-14 45q-20 65 -60 110.5t-125 49.5v17h471
v-17q-80 -1 -103.5 -41t-23.5 -74q0 -43 15 -90l307 -995h4l313 922q14 37 25.5 87t11.5 85q0 68 -29.5 85t-95.5 21v17h353z" />
    <glyph glyph-name="X" unicode="X" horiz-adv-x="1493" 
d="M1386 1473v-17q-50 -6 -98 -29.5t-112 -105.5q-72 -86 -82 -102l-314 -428l373 -558q69 -104 126 -150.5t99 -56.5t95 -10v-16h-555v16q71 1 92.5 33t21.5 60q0 41 -41 104l-299 451l-301 -416q-57 -77 -57 -135q0 -29 24 -64t103 -33v-16h-441v16q130 -3 220 107
q61 73 67 82l359 495l-365 551q-84 130 -141 164.5t-129 40.5v17h530v-17q-72 -4 -97.5 -31.5t-25.5 -60.5q0 -53 51 -133l267 -402l295 402q63 89 63 139q0 26 -20.5 54t-92.5 32v17h385z" />
    <glyph glyph-name="Y" unicode="Y" 
d="M1386 1473v-17q-66 -1 -117.5 -31t-80.5 -62.5t-62 -78.5l-344 -518v-590q0 -79 47.5 -118.5t114.5 -41.5v-16h-467v16q71 2 112.5 40.5t41.5 119.5v565l-375 562q-60 91 -107.5 121t-128.5 32v17h523v-17q-80 -3 -102.5 -34.5t-22.5 -59.5q0 -32 39 -90l307 -455
l272 410q62 92 62 141q0 34 -16.5 53t-33.5 25t-36 10v17h374z" />
    <glyph glyph-name="Z" unicode="Z" horiz-adv-x="1323" 
d="M1047 1417h-705q-88 0 -143 -19.5t-88 -65.5t-48 -128h-16v269h1206v-29l-1020 -1389h707q118 0 184.5 25t95.5 62.5t60 103.5h16l-69 -246h-1198v31z" />
    <glyph glyph-name="bracketleft" unicode="[" horiz-adv-x="618" 
d="M186 1473h432v-19h-122q-114 0 -146.5 -53t-32.5 -123v-1278q0 -103 50.5 -138.5t138.5 -35.5h112v-16h-432v1663z" />
    <glyph glyph-name="backslash" unicode="\" horiz-adv-x="569" 
d="M2 1387h126l447 -1418h-129z" />
    <glyph glyph-name="bracketright" unicode="]" horiz-adv-x="618" 
d="M432 1473v-1663h-432v16h113q100 0 144 39.5t44 134.5v1278q0 49 -11.5 86t-50.5 63.5t-116 26.5h-123v19h432z" />
    <glyph glyph-name="asciicircum" unicode="^" horiz-adv-x="1190" 
d="M147 666l411 718h82l404 -718h-159l-295 512l-290 -512h-153z" />
    <glyph glyph-name="underscore" unicode="_" horiz-adv-x="1024" 
d="M1036 -256h-1048v102h1048v-102z" />
    <glyph glyph-name="grave" unicode="`" horiz-adv-x="682" 
d="M272 1939l197 -333h-37l-285 333h125z" />
    <glyph glyph-name="a" unicode="a" 
d="M745 1491l441 -1262q35 -98 66 -142t59.5 -55.5t72.5 -15.5v-16h-481v16q74 0 114 14t40 76q0 34 -19 91q-4 8 -4 12l-131 391h-510l-117 -362q-24 -74 -24 -119q0 -62 31 -82.5t88 -20.5v-16h-346v16q74 7 118.5 56.5t77.5 150.5l416 1268h108zM410 653h469l-240 699h-4
z" />
    <glyph glyph-name="b" unicode="b" horiz-adv-x="1174" 
d="M623 0h-551v16h20q56 0 96.5 40.5t40.5 121.5v1112q0 79 -37.5 122.5t-101.5 43.5h-18v17h481q95 0 175 -27.5t135.5 -76t85.5 -110t30 -133.5q0 -133 -86 -216t-231 -122v-4q66 -7 127 -21t110 -39t92 -65q39 -36 66 -79t41 -93.5t14 -103.5q0 -115 -59.5 -198
t-134.5 -126q-107 -59 -295 -59zM381 797h96q118 0 168 24q32 16 66.5 44t66 88t31.5 145q0 66 -21 125.5t-61 105.5t-95 72t-120 26q-57 0 -131 -22v-608zM532 752h-151v-531q0 -53 10.5 -88.5t57.5 -61.5t145 -26q203 0 289 135q59 93 59 209q0 84 -29.5 152t-81 113.5
t-129.5 71.5t-170 26z" />
    <glyph glyph-name="c" unicode="c" horiz-adv-x="1473" 
d="M1403 1143h-17q-19 108 -101.5 183t-189.5 109.5t-200 34.5q-127 0 -238.5 -53.5t-192.5 -151t-126 -234t-45 -296.5q0 -155 43.5 -287.5t127 -230t193.5 -147.5t244 -50q112 0 246 45.5t242 151.5v-57q-133 -103 -243.5 -151t-275.5 -48q-174 0 -317.5 63.5
t-242.5 171.5t-150 243t-51 278q0 215 106 399.5t287 292t393 107.5q131 0 279 -39l104 -29q30 -6 51 -6q39 0 52 11.5t20 41.5h16z" />
    <glyph glyph-name="d" unicode="d" horiz-adv-x="1599" 
d="M76 1456v17h567q119 0 219.5 -20.5t180 -54.5t137.5 -74.5t98 -82.5q70 -70 119 -155.5t73.5 -180.5t24.5 -196t-24 -192t-69 -168.5t-107.5 -140.5t-145.5 -114q-71 -42 -163 -68t-249 -26h-661v16h20q69 0 103 52t34 110v1112q0 56 -18.5 94t-49.5 55t-69 17h-20z
M385 1403v-1167q0 -86 27.5 -126.5t85.5 -52.5t170 -12q160 0 270 31.5t213 140.5q76 81 122 198t46 283q0 131 -37 259.5t-113 228.5q-85 113 -218.5 177t-321.5 64q-97 0 -244 -24z" />
    <glyph glyph-name="e" unicode="e" horiz-adv-x="1044" 
d="M72 1456v17h878v-232h-14q0 186 -248 186h-307v-669h270q80 0 143 26t72 119h15v-334h-15q-9 57 -34 87.5t-49.5 40.5t-43.5 10q-36 6 -75 6h-283v-523q0 -59 22.5 -102t104.5 -43h219q79 0 130 23t80.5 64t49.5 99h14l-51 -231h-878v16h20q47 0 92 38t45 124v1110
q0 68 -30.5 118t-106.5 50h-20z" />
    <glyph glyph-name="f" unicode="f" horiz-adv-x="1044" 
d="M70 1456v17h884v-224h-16q-6 69 -50.5 123.5t-152.5 54.5h-354v-667h330q94 0 128 38.5t44 106.5h16v-334h-16q-6 63 -41.5 103.5t-130.5 40.5h-330v-537q0 -73 42 -117.5t101 -44.5h21v-16h-475v16h20q60 0 99.5 45t39.5 117v1114q0 95 -43 129.5t-96 34.5h-20z" />
    <glyph glyph-name="g" unicode="g" horiz-adv-x="1599" 
d="M1421 1167h-16q-32 144 -170 223.5t-315 79.5q-92 0 -197.5 -28.5t-205.5 -103.5t-166 -217.5t-66 -358.5q0 -344 160.5 -550t515.5 -206q140 0 206 19t84.5 52t18.5 89v270q0 96 -41.5 127t-124.5 41v17h479v-17q-66 -7 -102 -28.5t-48 -55.5t-12 -90v-410
q-220 -59 -454 -59q-121 0 -239 20t-246 89t-226 204q-147 203 -147 459q0 149 55.5 290t160 252.5t255.5 176t335 64.5q71 0 139 -9.5t203 -38.5q53 -12 76 -12q49 0 72 49h16v-338z" />
    <glyph glyph-name="h" unicode="h" horiz-adv-x="1599" 
d="M1223 799v493q0 72 -39 118t-121 46v17h469v-17q-82 0 -120 -45.5t-38 -118.5v-1114q0 -162 158 -162v-16h-469v16q75 0 117.5 40.5t42.5 119.5v578h-844v-576q0 -77 43.5 -119.5t116.5 -42.5v-16h-469v16q76 0 116.5 42.5t40.5 119.5v1114q0 164 -157 164v17h469v-17
q-83 0 -121.5 -45.5t-38.5 -118.5v-493h844z" />
    <glyph glyph-name="i" unicode="i" horiz-adv-x="618" 
d="M543 1473v-17q-66 0 -112 -37t-46 -123v-1118q0 -85 49 -123.5t109 -38.5v-16h-467v16q64 0 110.5 37.5t46.5 124.5v1118q0 92 -46.5 126t-110.5 34v17h467z" />
    <glyph glyph-name="j" unicode="j" horiz-adv-x="725" 
d="M342 123v1169q0 159 -158 164v17h465v-17q-66 -2 -110.5 -40t-44.5 -124v-1208q0 -101 -27.5 -173t-72.5 -114t-97.5 -60t-106.5 -18q-61 0 -107.5 19t-79 46.5t-66.5 65.5l10 11q83 -68 184 -68q137 0 174 95t37 235z" />
    <glyph glyph-name="k" unicode="k" horiz-adv-x="1366" 
d="M1290 1473v-17q-62 -4 -109.5 -15t-95.5 -55q-35 -33 -47.5 -44t-27.5 -25l-502 -496l600 -678q70 -78 119.5 -98t126.5 -29v-16h-318l-659 745v-567q0 -157 158 -162v-16h-467v16q44 2 78 16.5t56.5 50t22.5 95.5v1118q0 93 -46.5 125.5t-110.5 34.5v17h467v-17
q-158 -5 -158 -160v-544l565 565q0 -2 4 6q47 43 47 74q0 35 -27.5 44t-82.5 15v17h407z" />
    <glyph glyph-name="l" unicode="l" horiz-adv-x="1024" 
d="M76 16h20q54 0 95.5 42.5t41.5 119.5v1112q0 92 -46.5 128t-110.5 38v17h471v-17q-62 -2 -110 -37t-48 -129v-1075q0 -96 48 -133t157 -37h127q83 0 132.5 20t78.5 61t59 116h17l-56 -242h-876v16z" />
    <glyph glyph-name="m" unicode="m" horiz-adv-x="1749" 
d="M1636 1473v-17q-42 -5 -60 -8.5t-40 -20.5q-34 -26 -42.5 -49t-10.5 -80q-3 -9 0 -18l51 -1094q2 -69 33 -119t135 -51v-16h-477v16q94 10 127 54.5t28 138.5l-51 1132h-4l-520 -1341l-492 1292h-4l-53 -1044q-4 -86 10.5 -133.5t46.5 -68t95 -30.5v-16h-371v16
q71 1 108 34t48.5 82.5t17.5 135.5l59 1080q0 6 -12 21.5t-29.5 31t-33.5 24.5q-34 21 -59 24.5t-70 6.5v17h342l456 -1205l463 1205h309z" />
    <glyph glyph-name="n" unicode="n" horiz-adv-x="1665" 
d="M1599 1473v-17q-56 -7 -88.5 -21.5t-50.5 -57t-18 -122.5v-1292h-10l-1131 1262v-906q0 -113 9 -168t26 -79q37 -52 129 -56v-16h-369v16q62 3 96.5 26.5t49 86t14.5 188.5v961l-49 55q-65 74 -104 93.5t-97 29.5v17h277l1114 -1248v951q0 107 -8.5 160t-45 85t-114.5 35
v17h370z" />
    <glyph glyph-name="o" unicode="o" horiz-adv-x="1772" 
d="M1663 735q0 -207 -102.5 -385t-279.5 -283.5t-392 -105.5q-216 0 -396 105.5t-283.5 284.5t-103.5 390q0 162 61.5 304.5t172 248.5t252 164t295.5 58q151 0 290 -55.5t249.5 -160.5t173.5 -249t63 -316zM1487 731q0 294 -104 460t-240 222.5t-256 56.5q-93 0 -193 -30.5
t-194.5 -111.5t-155.5 -228t-61 -363q0 -190 50.5 -331.5t139 -231t195 -129t221.5 -39.5q103 0 208.5 36.5t193 119t142 224t54.5 345.5z" />
    <glyph glyph-name="p" unicode="p" horiz-adv-x="1110" 
d="M78 1456v17h483q121 0 213.5 -33t154 -90t92 -128.5t30.5 -150.5q0 -77 -28.5 -148.5t-89.5 -127t-160 -88.5t-228 -33q-41 0 -158 12v-508q0 -157 160 -162v-16h-469v16q69 2 113.5 39.5t44.5 122.5v1114q0 51 -16 85t-37.5 48.5t-48 21.5t-36.5 9h-20zM387 1421v-694
q77 -14 152 -14q143 0 242.5 73.5t99.5 272.5q0 164 -87.5 269.5t-265.5 105.5q-69 0 -141 -13z" />
    <glyph glyph-name="q" unicode="q" horiz-adv-x="1772" 
d="M1720 -18l23 -15q-96 -110 -188 -179t-203 -69q-35 0 -70 6t-88.5 24t-124.5 52q-123 58 -338 168q-2 2 -24 13q-85 26 -123.5 40.5t-100.5 50t-124.5 93.5t-116.5 137q-42 61 -73 134.5t-47 152t-16 151.5q0 219 109 397.5t288.5 278t385.5 99.5q158 0 300.5 -60
t249 -167.5t165.5 -249t59 -300.5q0 -156 -62.5 -305t-181.5 -262q-54 -51 -99 -82t-87.5 -51t-88.5 -34.5t-89 -24.5v-5q6 0 43 -20q133 -76 194 -92.5t133 -16.5q89 0 144.5 28t138.5 99q2 0 6.5 4.5t5.5 4.5zM1487 729q0 220 -60 367.5t-152.5 228.5t-192.5 113t-195 32
q-98 0 -199.5 -33t-195 -116t-151.5 -226.5t-58 -349.5q0 -201 53 -346.5t145 -234.5q58 -55 126 -90t141.5 -50.5t144.5 -15.5q127 0 237.5 47t186.5 135q170 198 170 539z" />
    <glyph glyph-name="r" unicode="r" horiz-adv-x="1343" 
d="M90 1452h-20v21h510q123 0 208.5 -38t133 -96.5t68 -123.5t20.5 -128q0 -80 -33.5 -153.5t-103 -126.5t-173.5 -72v-4q132 -64 244 -254l133 -225q90 -151 144.5 -191t107.5 -45v-16h-268q-17 22 -32 42.5t-32 43.5q-10 15 -29.5 45.5t-23.5 34.5l-176 291
q-53 89 -108.5 144.5t-103.5 79.5t-86.5 30t-90.5 6v-539q0 -157 160 -162v-16h-469v16q44 2 78 16.5t56.5 50t22.5 95.5v1114q0 88 -43 124t-94 36zM379 756h84q132 0 216.5 38t122.5 108.5t38 172.5q0 85 -34 166.5t-115.5 137t-219.5 55.5q-56 0 -92 -9v-669z" />
    <glyph glyph-name="s" unicode="s" horiz-adv-x="961" 
d="M831 1190h-16q-14 107 -93.5 187.5t-209.5 80.5q-85 0 -151 -40t-102 -109t-36 -158q0 -69 21.5 -122.5t63.5 -94.5t99 -76.5t154 -89.5q162 -89 252 -177.5t90 -242.5q0 -94 -48.5 -181.5t-146.5 -143.5t-243 -56q-91 0 -161 19.5t-142 54.5q-30 10 -41 10
q-21 0 -27.5 -15t-17.5 -65h-17v369h17q36 -162 140 -245t253 -83q112 0 179.5 42t93.5 102t26 120q0 124 -75.5 202.5t-229.5 160.5q-106 58 -157 90t-103.5 83t-83.5 120.5t-31 159.5q0 104 55 199t156 152.5t229 57.5q97 0 199 -33q16 -8 43 -8q33 0 45 45h16v-315z" />
    <glyph glyph-name="t" unicode="t" horiz-adv-x="1366" 
d="M1331 1186h-16q-11 144 -84 186.5t-180 42.5h-293v-1237q0 -157 160 -162v-16h-469v16q66 2 111.5 38.5t45.5 123.5v1237h-293q-107 0 -179.5 -42.5t-84.5 -186.5h-16v360h16q16 -25 28 -37t31 -20.5t44.5 -12t60.5 -3.5h954q95 0 148 73h16v-360z" />
    <glyph glyph-name="u" unicode="u" horiz-adv-x="1599" 
d="M1528 0h-309v244l-5 4q-64 -149 -191.5 -218t-266.5 -69q-157 0 -282.5 75t-184.5 185q-42 78 -53 162.5t-11 175.5v733q0 66 -26.5 111t-126.5 53v17h463v-17q-102 -12 -130 -59t-28 -105v-721q0 -220 45 -325q48 -112 144 -175t218 -63q51 0 121 18t131 60
q183 125 183 401v805q0 61 -28 108t-132 56v17h471v-17q-102 -5 -131 -57t-29 -105v-1116q0 -58 19.5 -91.5t54 -47.5t84.5 -23v-16z" />
    <glyph glyph-name="v" unicode="v" 
d="M1386 1473v-17q-56 -7 -93 -38t-63 -80.5t-59 -131.5q-5 -5 -10 -24l-426 -1221h-14l-502 1321q0 4 -4 12q-29 85 -76.5 124t-118.5 38v17h484v-17q-61 -6 -98 -24t-37 -86q0 -18 16 -74q2 -5 3.5 -10.5t2.5 -8.5l387 -1034h4l332 963q35 99 35 149q0 79 -33.5 100
t-99.5 25v17h370z" />
    <glyph glyph-name="w" unicode="w" horiz-adv-x="2091" 
d="M2071 1473v-17q-45 -9 -80 -33.5t-69 -81t-71 -163.5l-413 -1217h-15l-376 1217h-5l-409 -1217h-15l-419 1342q-23 71 -55 103t-58.5 39.5t-65.5 10.5v17h457v-17q-60 -4 -90.5 -36t-30.5 -79q0 -36 17 -90l311 -995h4l334 995l-14 45q-20 65 -60 110.5t-125 49.5v17h471
v-17q-80 -1 -103.5 -41t-23.5 -74q0 -43 15 -90l307 -995h4l313 922q14 37 25.5 87t11.5 85q0 68 -29.5 85t-95.5 21v17h353z" />
    <glyph glyph-name="x" unicode="x" horiz-adv-x="1493" 
d="M1386 1473v-17q-50 -6 -98 -29.5t-112 -105.5q-72 -86 -82 -102l-314 -428l373 -558q69 -104 126 -150.5t99 -56.5t95 -10v-16h-555v16q71 1 92.5 33t21.5 60q0 41 -41 104l-299 451l-301 -416q-57 -77 -57 -135q0 -29 24 -64t103 -33v-16h-441v16q130 -3 220 107
q61 73 67 82l359 495l-365 551q-84 130 -141 164.5t-129 40.5v17h530v-17q-72 -4 -97.5 -31.5t-25.5 -60.5q0 -53 51 -133l267 -402l295 402q63 89 63 139q0 26 -20.5 54t-92.5 32v17h385z" />
    <glyph glyph-name="y" unicode="y" 
d="M1386 1473v-17q-66 -1 -117.5 -31t-80.5 -62.5t-62 -78.5l-344 -518v-590q0 -79 47.5 -118.5t114.5 -41.5v-16h-467v16q71 2 112.5 40.5t41.5 119.5v565l-375 562q-60 91 -107.5 121t-128.5 32v17h523v-17q-80 -3 -102.5 -34.5t-22.5 -59.5q0 -32 39 -90l307 -455
l272 410q62 92 62 141q0 34 -16.5 53t-33.5 25t-36 10v17h374z" />
    <glyph glyph-name="z" unicode="z" horiz-adv-x="1323" 
d="M1047 1417h-705q-88 0 -143 -19.5t-88 -65.5t-48 -128h-16v269h1206v-29l-1020 -1389h707q118 0 184.5 25t95.5 62.5t60 103.5h16l-69 -246h-1198v31z" />
    <glyph glyph-name="braceleft" unicode="{" horiz-adv-x="618" 
d="M74 621v36q81 23 114 37.5t66 53.5q57 64 57 129q0 52 -14 122q-29 145 -29 187q0 64 21 125t64.5 115t112 93t152.5 52v-41q-76 -12 -125.5 -47t-73.5 -83.5t-24 -96.5q0 -32 15 -115q17 -94 22.5 -132t5.5 -79q0 -70 -52 -167t-232 -169q67 -26 132 -72.5t107.5 -117
t42.5 -158.5q0 -48 -26 -180q-19 -89 -19 -136q0 -63 44.5 -131t182.5 -102v-35q-161 30 -256.5 137.5t-95.5 247.5q0 57 15 127q17 64 22 101q8 27 8 63q0 72 -37.5 122.5t-91.5 77.5t-108 36z" />
    <glyph glyph-name="bar" unicode="|" horiz-adv-x="410" 
d="M133 1378h143v-1740h-143v1740z" />
    <glyph glyph-name="braceright" unicode="}" horiz-adv-x="618" 
d="M545 659v-36q-71 -18 -108.5 -35t-74.5 -56q-57 -59 -57 -131q0 -52 17 -120q26 -139 26 -189q0 -86 -38.5 -166.5t-116.5 -139t-193 -77.5v39q110 18 165.5 85.5t55.5 143.5q0 53 -12 113q-31 155 -31 211q0 71 51.5 168t233.5 170q-115 46 -199 132t-84 216
q0 49 27 180q18 90 18 133q0 66 -44 134.5t-181 99.5v37q79 -13 145 -49t111.5 -87.5t70.5 -115t25 -133.5q0 -60 -16 -127q-4 -33 -23 -103q-6 -30 -6 -61q0 -106 74.5 -164t163.5 -72z" />
    <glyph glyph-name="asciitilde" unicode="~" horiz-adv-x="1065" 
d="M1044 709h57q-6 -159 -82.5 -241t-186.5 -82q-53 0 -112.5 17t-262.5 102q-146 61 -211 61q-68 0 -113.5 -41.5t-62.5 -137.5h-58q8 164 81.5 243.5t178.5 79.5q53 0 104 -14q101 -29 279 -105q96 -42 147 -56q30 -8 65 -8q71 0 119.5 47t57.5 135z" />
    <glyph glyph-name="uni00A0" unicode="&#xa0;" horiz-adv-x="683" 
 />
    <glyph glyph-name="exclamdown" unicode="&#xa1;" horiz-adv-x="342" 
d="M164 1063h12q10 -69 23 -240q0 3 8 -99t21 -251t20 -221q3 -16 6.5 -60t3.5 -75q0 -156 -86 -156q-80 0 -80 139q0 9 2 43t3.5 66t2.5 47q5 51 11.5 139t9.5 137q1 2 7.5 88t10.5 131.5t6 75.5q14 160 19 236zM172 1450q27 0 47 -11.5t31.5 -31.5t11.5 -47
q0 -37 -25.5 -64.5t-64.5 -27.5q-38 0 -65 27t-27 65q0 39 27.5 64.5t64.5 25.5z" />
    <glyph glyph-name="cent" unicode="&#xa2;" horiz-adv-x="1071" 
d="M891 928h47v-316h-39q-26 123 -81.5 176t-121.5 76l-241 -751q27 -17 51.5 -32t52 -23.5t66.5 -8.5q117 0 195.5 56t144.5 133v-66q-12 -12 -29.5 -33.5t-24.5 -27.5q-59 -59 -122 -88.5t-118 -37.5t-106 -8q-80 0 -145 21l-92 -279h-43l96 293q-101 38 -188 136t-87 284
q0 105 37.5 197t102.5 160t149 104.5t174 36.5q44 0 57 -0.5t23.5 -2t22.5 -3.5l84 258h43l-88 -271q4 -1 21.5 -4.5t41.5 -11.5q30 -10 53 -10q39 0 64 43zM422 145l233 732q-48 8 -69 8q-68 0 -138 -38.5t-116.5 -124.5t-46.5 -216q0 -100 26.5 -179.5t60 -125t50.5 -56.5
z" />
    <glyph glyph-name="sterling" unicode="&#xa3;" horiz-adv-x="1194" 
d="M1090 1190h-13q4 28 4 57q0 107 -60.5 163t-162.5 56q-157 0 -237 -96q-55 -60 -91 -141t-53 -154q-39 -169 -45 -217h283v-115h-305q-9 -76 -29.5 -188.5t-48.5 -213.5t-58 -159q133 -38 246 -63.5t205 -38t160 -12.5q52 0 124.5 13.5t112.5 53.5l13 -8
q-41 -88 -123.5 -127t-206.5 -39q-96 0 -179.5 14.5t-324.5 69.5q-169 38 -254 55q-14 0 -29 6v11q68 26 102.5 71t61.5 146q30 107 76 409h-176v115h192q23 117 49 207t87.5 196.5t171.5 180.5t270 74q60 0 150 -18.5t172 -80.5z" />
    <glyph glyph-name="currency" unicode="&#xa4;" horiz-adv-x="1024" 
d="M779 1027l138 135l89 -87l-140 -140q87 -122 87 -260q0 -135 -87 -265l129 -128l-92 -91l-130 129q-80 -50 -136.5 -67.5t-126.5 -17.5q-74 0 -132.5 19t-130.5 66l-133 -129l-88 91l131 128q-88 117 -88 261q0 70 22 140t66 124l-136 135l93 92l133 -135q124 90 261 90
q134 0 271 -90zM510 987q-130 0 -221.5 -91.5t-91.5 -220.5q0 -130 92 -221.5t221 -91.5q130 0 221.5 91.5t91.5 221.5q0 129 -91.5 220.5t-221.5 91.5z" />
    <glyph glyph-name="yen" unicode="&#xa5;" 
d="M584 811l-330 492q-60 91 -107.5 121t-128.5 32v17h523v-17q-80 -3 -102.5 -34.5t-22.5 -59.5q0 -32 39 -90l307 -455l272 410q62 92 62 141q0 34 -16.5 53t-33.5 25t-36 10v17h374v-17q-66 -1 -117.5 -31t-80.5 -62.5t-62 -78.5l-313 -473h487v-45h-516v-291h516v-45
h-516v-252q0 -97 54 -129.5t106 -32.5v-16h-465v16q41 1 72 15t43 26q39 34 39 121v252h-518v45h518v266l-19 25h-499v45h471z" />
    <glyph glyph-name="brokenbar" unicode="&#xa6;" horiz-adv-x="532" 
d="M345 1491v-790h-157v790h157zM345 360v-791h-157v791h157z" />
    <glyph glyph-name="section" unicode="&#xa7;" horiz-adv-x="934" 
d="M114 -70l149 26q24 -132 75 -183.5t134 -51.5q79 0 128.5 50t49.5 124q0 29 -9.5 56t-29.5 51q-59 75 -269 232q-154 115 -200 180q-78 108 -78 230q0 100 50.5 176.5t133.5 106.5q-52 62 -78.5 124t-26.5 124q0 135 86 225.5t219 90.5q141 0 230 -86.5t107 -260.5
l-153 -19q-18 124 -62 171t-116 47q-70 0 -118.5 -47.5t-48.5 -113.5q0 -28 11.5 -56.5t33.5 -57.5q44 -58 236 -200q165 -124 214 -188q73 -96 73 -216q0 -108 -55 -186q-36 -51 -132 -100q66 -61 98.5 -131t32.5 -150q0 -143 -92.5 -235.5t-237.5 -92.5
q-146 0 -240.5 92.5t-114.5 268.5zM594 244q59 37 90 87t31 100q0 58 -42.5 120t-184.5 169q-113 84 -168 138q-68 -48 -95 -94t-27 -100q0 -63 38 -120.5t169 -151.5q113 -81 189 -148z" />
    <glyph glyph-name="dieresis" unicode="&#xa8;" horiz-adv-x="682" 
d="M543 1798q40 0 68 -28t28 -68q0 -37 -27.5 -66.5t-68.5 -29.5q-40 0 -68.5 29.5t-28.5 66.5q0 40 29 68t68 28zM139 1796q39 0 66.5 -27.5t27.5 -66.5q0 -38 -26.5 -67t-67.5 -29q-38 0 -67 29t-29 67q0 40 29 67t67 27z" />
    <glyph glyph-name="copyright" unicode="&#xa9;" horiz-adv-x="1579" 
d="M1104 1133l20 -293h-30q-24 88 -85.5 166.5t-199.5 78.5q-146 0 -224.5 -120t-78.5 -285q0 -216 101 -302.5t220 -86.5q105 0 175 50t122 122l21 -14q-128 -220 -348 -220q-89 0 -165.5 31.5t-135.5 91.5t-92 142.5t-33 177.5q0 134 61 239t160 161t209 56q77 0 172 -34
q6 -4 24.5 -10.5t36.5 -6.5q17 0 28 16.5t11 39.5h31zM788 1372q191 0 354 -94t259 -256t96 -356q0 -193 -95.5 -356.5t-259 -258t-354.5 -94.5q-190 0 -353.5 95.5t-258 258.5t-94.5 355t95 354.5t259 257t352 94.5zM788 1317q-176 0 -326.5 -87t-238.5 -238.5t-88 -327.5
q0 -177 87.5 -327.5t237 -238.5t328.5 -88q176 0 327.5 88.5t239 239t87.5 326.5q0 179 -88 328.5t-238.5 237t-327.5 87.5z" />
    <glyph glyph-name="ordfeminine" unicode="&#xaa;" horiz-adv-x="618" 
d="M373 1280v39q0 74 -42 101.5t-81 27.5q-95 0 -144 -105q-8 -8 -8 -16l-43 12q19 63 70.5 120t157.5 57q101 0 174 -70q30 -30 37.5 -70t7.5 -96v-203q0 -39 4 -57.5t20 -18.5q24 0 35 52h43q-1 -63 -41 -91t-86 -28q-47 0 -69 19.5t-35 47.5q-30 -30 -64.5 -48.5
t-87.5 -18.5q-72 0 -123 44.5t-51 100.5q0 75 60.5 109.5t142.5 54.5q56 12 123 37zM373 1061v176q-17 -7 -60 -20q-69 -20 -102 -44.5t-33 -78.5q0 -48 28 -73.5t54 -25.5q70 0 113 66z" />
    <glyph glyph-name="guillemotleft" unicode="&#xab;" horiz-adv-x="725" 
d="M696 1225l-204 -498l204 -498h-24l-332 498l332 498h24zM381 1225l-207 -498l207 -498h-25l-331 498l331 498h25z" />
    <glyph glyph-name="logicalnot" unicode="&#xac;" horiz-adv-x="1460" 
d="M31 477v113h1362v-590h-113v477h-1249z" />
    <glyph glyph-name="uni00AD" unicode="&#xad;" horiz-adv-x="641" 
d="M55 772h529v-82h-529v82z" />
    <glyph glyph-name="registered" unicode="&#xae;" horiz-adv-x="1579" 
d="M631 649v-229q0 -65 10 -94t35.5 -37t81.5 -10v-35h-367v35q61 0 85.5 12t30 38t5.5 91v526q0 60 -11 87t-35.5 35.5t-74.5 8.5v31h254q108 0 163 -5t99 -28q44 -19 85.5 -65t41.5 -125q0 -84 -55 -143t-168 -72l166 -224q6 -6 12 -18q51 -71 84 -100t61.5 -38t61.5 -11
v-35h-205q-8 16 -10 18q-5 9 -17 24t-28 36q-5 10 -14 22q-11 9 -11 14l-211 291h-69zM631 1049v-359q96 -3 185 33t89 174q0 70 -45.5 119t-144.5 49q-36 0 -84 -16zM788 1376q146 0 274 -53.5t226.5 -151t153.5 -227t55 -274.5q0 -192 -95.5 -355.5t-258.5 -258.5
t-355 -95q-143 0 -272.5 55t-227 153t-152 228.5t-54.5 272.5q0 192 95 354.5t259 257t352 94.5zM788 1323q-132 0 -250 -50t-210 -141t-142.5 -211t-50.5 -253q0 -178 88 -329t239 -239t326 -88q176 0 328 88.5t240 239t88 328.5q0 137 -50.5 255.5t-141.5 209t-211 140.5
t-253 50z" />
    <glyph glyph-name="uni00AF" unicode="&#xaf;" horiz-adv-x="1024" 
d="M1036 1525h-1048v102h1048v-102z" />
    <glyph glyph-name="degree" unicode="&#xb0;" horiz-adv-x="819" 
d="M717 1096q0 -83 -42 -154.5t-112.5 -112.5t-152.5 -41q-83 0 -154 41.5t-112.5 112.5t-41.5 154q0 64 23 119t67 98t100 66.5t118 23.5q61 0 117.5 -23.5t99.5 -66.5t66.5 -99.5t23.5 -117.5zM635 1096q0 60 -31 112t-83 82.5t-113 30.5q-93 0 -159 -66t-65 -159
q0 -94 66 -160t160 -66q61 0 113 31t82 82.5t30 112.5z" />
    <glyph glyph-name="plusminus" unicode="&#xb1;" horiz-adv-x="1124" 
d="M20 836h486v485h112v-485h486v-113h-486v-485h-112v485h-486v113zM1104 0h-1084v113h1084v-113z" />
    <glyph glyph-name="twosuperior" unicode="&#xb2;" horiz-adv-x="682" 
d="M629 729h-602q39 28 104 83.5t127 114.5t88 89q74 86 100.5 144t26.5 106q0 56 -27 95.5t-69 59t-90 19.5q-55 0 -110 -29t-81 -98h-43q15 60 52.5 105.5t96.5 71.5t132 26q119 0 188.5 -63t69.5 -148q0 -116 -108 -234.5t-296 -255.5v-4h361q60 0 90 53h31z" />
    <glyph glyph-name="threesuperior" unicode="&#xb3;" horiz-adv-x="598" 
d="M51 1516h31q5 -10 9.5 -12.5t14.5 -2.5q7 0 23 2l16 2q46 11 91 11q109 0 179 -54t70 -133q0 -128 -135 -178l-31 -8v-4l31 -4q68 -12 132.5 -62.5t64.5 -138.5q0 -96 -86.5 -160.5t-202.5 -64.5q-79 0 -129 26.5t-104 69.5v59l18 -14q53 -46 98 -66t105 -20
q108 0 140 60.5t32 113.5q0 79 -56 129q-49 45 -149 45h-92v39h55q195 0 195 168q0 45 -17.5 81.5t-51 57.5t-77.5 21q-99 0 -143 -111h-31v148z" />
    <glyph glyph-name="acute" unicode="&#xb4;" horiz-adv-x="682" 
d="M580 1933l-287 -327h-41l207 327h121z" />
    <glyph glyph-name="uni00B5" unicode="&#xb5;" horiz-adv-x="1180" 
d="M125 1024h176v-682q0 -169 107 -217q47 -20 85.5 -20.5t81.5 18.5q40 18 85.5 56.5t64.5 82.5v762h176v-786q0 -95 47 -144q49 -49 109 -16q25 15 35.5 35.5t17.5 53t10 40.5h41q-18 -77 -42.5 -125.5t-96.5 -87.5q-66 -35 -122.5 -28.5t-88.5 30.5q-25 20 -38.5 37.5
t-22 37.5t-13 42.5l-10.5 52.5q-49 -73 -143 -141q-81 -60 -193 -60q-42 0 -79 17.5t-68 43.5t-45 37v-47q3 -68 28 -148t33 -124q17 -94 -15 -147.5t-79 -53.5t-78.5 53t-15.5 148q8 46 25 104t22.5 88.5t5.5 79.5v1008z" />
    <glyph glyph-name="paragraph" unicode="&#xb6;" horiz-adv-x="901" 
d="M337 -407v1045q-148 9 -240 117t-92 289q0 133 48 230t132.5 144.5t207.5 47.5h518v-173h-117v-1700h-140v1700h-182v-1700h-135z" />
    <glyph glyph-name="cedilla" unicode="&#xb8;" horiz-adv-x="682" 
d="M334 0h74l-58 -80q142 -11 142 -110q0 -66 -57.5 -90.5t-119.5 -24.5q-112 0 -209 51v37q3 -2 15 -6q51 -17 88 -17q52 0 78 21.5t26 50.5t-16 42.5t-37 19.5z" />
    <glyph glyph-name="onesuperior" unicode="&#xb9;" horiz-adv-x="362" 
d="M242 1493v-666q0 -24 7.5 -40.5t29 -26.5t57.5 -10v-21h-301v21q94 0 94 77v568q0 78 -94 78v20h207z" />
    <glyph glyph-name="ordmasculine" unicode="&#xba;" horiz-adv-x="748" 
d="M367 1516q67 0 128.5 -21.5t107.5 -61t72.5 -92t26.5 -116.5q0 -55 -22 -106.5t-63 -92.5t-103 -66.5t-141 -25.5q-94 0 -169 38t-118 104.5t-43 148.5q0 83 46 150.5t121.5 104t156.5 36.5zM371 1477q-96 0 -142.5 -73t-46.5 -175q0 -113 49.5 -184.5t143.5 -71.5
q82 0 123.5 49.5t53 105t11.5 99.5q0 125 -49 187.5t-143 62.5z" />
    <glyph glyph-name="guillemotright" unicode="&#xbb;" horiz-adv-x="725" 
d="M29 1225h24l332 -498l-332 -498h-24l204 498zM344 1225h25l331 -498l-331 -498h-25l207 498z" />
    <glyph glyph-name="onequarter" unicode="&#xbc;" horiz-adv-x="1708" 
d="M252 -57l1102 1548h156l-1101 -1548h-157zM331 733v554q-102 -81 -224 -113v123q62 20 138 73t123 114h108v-751h-145zM1430 -31v154h-383v123l405 474h122v-489h104v-108h-104v-154h-144zM1430 231v263l-230 -263h230z" />
    <glyph glyph-name="onehalf" unicode="&#xbd;" horiz-adv-x="1708" 
d="M228 -57l1101 1548h157l-1101 -1548h-157zM331 733v554q-102 -81 -224 -113v123q62 20 138 73t123 114h108v-751h-145zM1049 -31q6 56 48 113q62 87 206 191t171 135q37 41 37 84q0 48 -34.5 78.5t-103.5 30.5q-66 0 -98.5 -23.5t-53.5 -89.5l-151 15q29 112 101 164.5
t205 52.5q151 0 221.5 -59t70.5 -144q0 -84 -59 -159q-45 -56 -204 -172q-84 -61 -119 -96h386v-121h-623z" />
    <glyph glyph-name="threequarters" unicode="&#xbe;" horiz-adv-x="1708" 
d="M252 -57l1101 1548h157l-1101 -1548h-157zM33 929l146 15q20 -60 52 -82q43 -30 102 -30q71 0 114 39t43 94q0 50 -36 80t-120 30q-50 -3 -58 -3l22 110q81 -1 118.5 29t37.5 73q0 37 -30 63t-89 26q-56 0 -87.5 -22t-54.5 -80l-143 23q41 106 103.5 148t182.5 42
q144 0 209.5 -53.5t65.5 -133.5q0 -55 -35.5 -98t-102.5 -62q89 -22 131 -72.5t42 -118.5q0 -93 -79 -162t-225 -69q-140 0 -214 55.5t-95 158.5zM1429 -31v154h-382v123l404 474h123v-489h104v-108h-104v-154h-145zM1429 231v263l-229 -263h229z" />
    <glyph glyph-name="questiondown" unicode="&#xbf;" horiz-adv-x="618" 
d="M582 205l12 -6q-36 -94 -95.5 -166t-176.5 -72q-118 0 -193.5 81t-75.5 200q0 66 19.5 119t52.5 103.5t119 168.5q59 80 91 138.5t46.5 126.5t11.5 167h15q6 -37 6 -111q0 -95 -21 -158.5t-80 -154.5q-72 -107 -101.5 -174t-29.5 -154q0 -115 68 -174t145 -59
q47 0 101.5 26.5t85.5 98.5zM381 1448q27 0 47 -11.5t31.5 -31.5t11.5 -47q0 -37 -25.5 -64.5t-64.5 -27.5q-38 0 -65 27t-27 65q0 39 27.5 64.5t64.5 25.5z" />
    <glyph glyph-name="Agrave" unicode="&#xc0;" 
d="M745 1491l441 -1262q35 -98 66 -142t59.5 -55.5t72.5 -15.5v-16h-481v16q74 0 114 14t40 76q0 34 -19 91q-4 8 -4 12l-131 391h-510l-117 -362q-24 -74 -24 -119q0 -62 31 -82.5t88 -20.5v-16h-346v16q74 7 118.5 56.5t77.5 150.5l416 1268h108zM410 653h469l-240 699h-4
zM637 1939l197 -333h-37l-285 333h125z" />
    <glyph glyph-name="Aacute" unicode="&#xc1;" 
d="M745 1491l441 -1262q35 -98 66 -142t59.5 -55.5t72.5 -15.5v-16h-481v16q74 0 114 14t40 76q0 34 -19 91q-4 8 -4 12l-131 391h-510l-117 -362q-24 -74 -24 -119q0 -62 31 -82.5t88 -20.5v-16h-346v16q74 7 118.5 56.5t77.5 150.5l416 1268h108zM410 653h469l-240 699h-4
zM945 1933l-287 -327h-41l207 327h121z" />
    <glyph glyph-name="Acircumflex" unicode="&#xc2;" 
d="M745 1491l441 -1262q35 -98 66 -142t59.5 -55.5t72.5 -15.5v-16h-481v16q74 0 114 14t40 76q0 34 -19 91q-4 8 -4 12l-131 391h-510l-117 -362q-24 -74 -24 -119q0 -62 31 -82.5t88 -20.5v-16h-346v16q74 7 118.5 56.5t77.5 150.5l416 1268h108zM410 653h469l-240 699h-4
zM725 1935l281 -329h-43l-262 219l-252 -219h-43l266 329h53z" />
    <glyph glyph-name="Atilde" unicode="&#xc3;" 
d="M745 1491l441 -1262q35 -98 66 -142t59.5 -55.5t72.5 -15.5v-16h-481v16q74 0 114 14t40 76q0 34 -19 91q-4 8 -4 12l-131 391h-510l-117 -362q-24 -74 -24 -119q0 -62 31 -82.5t88 -20.5v-16h-346v16q74 7 118.5 56.5t77.5 150.5l416 1268h108zM410 653h469l-240 699h-4
zM750 1626l-82 29q-114 39 -145 39q-35 0 -51 -24t-29 -62h-35q3 88 56.5 141t119.5 53q29 0 61 -9t91 -30q90 -30 108 -35.5t37 -5.5q17 0 44.5 15t41.5 65h37q-13 -82 -59 -137t-115 -55q-37 0 -80 16z" />
    <glyph glyph-name="Adieresis" unicode="&#xc4;" 
d="M745 1491l441 -1262q35 -98 66 -142t59.5 -55.5t72.5 -15.5v-16h-481v16q74 0 114 14t40 76q0 34 -19 91q-4 8 -4 12l-131 391h-510l-117 -362q-24 -74 -24 -119q0 -62 31 -82.5t88 -20.5v-16h-346v16q74 7 118.5 56.5t77.5 150.5l416 1268h108zM410 653h469l-240 699h-4
zM908 1798q40 0 68 -28t28 -68q0 -37 -27.5 -66.5t-68.5 -29.5q-40 0 -68.5 29.5t-28.5 66.5q0 40 29 68t68 28zM504 1796q39 0 66.5 -27.5t27.5 -66.5q0 -38 -26.5 -67t-67.5 -29q-38 0 -67 29t-29 67q0 40 29 67t67 27z" />
    <glyph glyph-name="Aring" unicode="&#xc5;" 
d="M745 1491l441 -1262q35 -98 66 -142t59.5 -55.5t72.5 -15.5v-16h-481v16q74 0 114 14t40 76q0 34 -19 91q-4 8 -4 12l-131 391h-510l-117 -362q-24 -74 -24 -119q0 -62 31 -82.5t88 -20.5v-16h-346v16q74 7 118.5 56.5t77.5 150.5l416 1268h108zM410 653h469l-240 699h-4
zM705 1966q49 0 90.5 -24.5t65.5 -66.5t24 -89t-24 -89t-65.5 -66.5t-90.5 -24.5q-46 0 -87.5 24t-66 65.5t-24.5 90.5q0 47 23.5 89t64.5 66.5t90 24.5zM707 1907q-50 0 -85.5 -35.5t-35.5 -85.5t35.5 -85.5t85.5 -35.5t84.5 35.5t34.5 85.5t-34.5 85.5t-84.5 35.5z" />
    <glyph glyph-name="AE" unicode="&#xc6;" horiz-adv-x="1686" 
d="M1587 1473v-218h-16q0 44 -25 83.5t-63.5 64t-79.5 24.5h-389v-659h289q73 0 133.5 30.5t60.5 116.5h16v-333h-16q0 78 -58 109.5t-130 31.5h-295v-547q0 -68 31 -99.5t104 -31.5h201q77 0 127.5 18t85.5 60.5t57 109.5h16l-49 -233h-882v16q157 4 157 160v547h-332
l-217 -436l-4 -11q-57 -114 -57 -167q0 -37 18 -56.5t41.5 -26t59.5 -10.5v-16h-346v16q65 9 104.5 45t77.5 115l645 1297h735zM549 768h313v631h-4z" />
    <glyph glyph-name="Ccedilla" unicode="&#xc7;" horiz-adv-x="1473" 
d="M1401 1143h-17q-18 109 -100 183t-190 109t-203 35q-169 0 -306 -92t-215.5 -259.5t-78.5 -383.5q0 -212 76.5 -374t216.5 -251.5t319 -89.5q263 0 483 197v-57q-88 -73 -153 -111t-138.5 -57t-201.5 -33l-27 -39q142 -11 142 -110q0 -66 -57.5 -90.5t-119.5 -24.5
q-112 0 -210 51v37q1 -1 16 -6q51 -17 88 -17q52 0 78 21.5t26 50.5t-16 42.5t-37 19.5l45 65q-130 18 -217 41.5t-188 93t-185 197.5q-43 64 -71.5 138.5t-41 144.5t-12.5 139q0 193 94 379t282 305t450 119q122 0 221 -29q144 -45 188 -45q30 0 39 15t15 40h16z" />
    <glyph glyph-name="Egrave" unicode="&#xc8;" horiz-adv-x="1044" 
d="M72 1456v17h878v-232h-14q0 186 -248 186h-307v-669h270q80 0 143 26t72 119h15v-334h-15q-9 57 -34 87.5t-49.5 40.5t-43.5 10q-36 6 -75 6h-283v-523q0 -59 22.5 -102t104.5 -43h219q79 0 130 23t80.5 64t49.5 99h14l-51 -231h-878v16h20q47 0 92 38t45 124v1110
q0 68 -30.5 118t-106.5 50h-20zM454 1939l197 -333h-37l-285 333h125z" />
    <glyph glyph-name="Eacute" unicode="&#xc9;" horiz-adv-x="1044" 
d="M72 1456v17h878v-232h-14q0 186 -248 186h-307v-669h270q80 0 143 26t72 119h15v-334h-15q-9 57 -34 87.5t-49.5 40.5t-43.5 10q-36 6 -75 6h-283v-523q0 -59 22.5 -102t104.5 -43h219q79 0 130 23t80.5 64t49.5 99h14l-51 -231h-878v16h20q47 0 92 38t45 124v1110
q0 68 -30.5 118t-106.5 50h-20zM762 1933l-287 -327h-41l207 327h121z" />
    <glyph glyph-name="Ecircumflex" unicode="&#xca;" horiz-adv-x="1044" 
d="M72 1456v17h878v-232h-14q0 186 -248 186h-307v-669h270q80 0 143 26t72 119h15v-334h-15q-9 57 -34 87.5t-49.5 40.5t-43.5 10q-36 6 -75 6h-283v-523q0 -59 22.5 -102t104.5 -43h219q79 0 130 23t80.5 64t49.5 99h14l-51 -231h-878v16h20q47 0 92 38t45 124v1110
q0 68 -30.5 118t-106.5 50h-20zM542 1935l281 -329h-43l-262 219l-252 -219h-43l266 329h53z" />
    <glyph glyph-name="Edieresis" unicode="&#xcb;" horiz-adv-x="1044" 
d="M72 1456v17h878v-232h-14q0 186 -248 186h-307v-669h270q80 0 143 26t72 119h15v-334h-15q-9 57 -34 87.5t-49.5 40.5t-43.5 10q-36 6 -75 6h-283v-523q0 -59 22.5 -102t104.5 -43h219q79 0 130 23t80.5 64t49.5 99h14l-51 -231h-878v16h20q47 0 92 38t45 124v1110
q0 68 -30.5 118t-106.5 50h-20zM746 1798q40 0 68 -28t28 -68q0 -37 -27.5 -66.5t-68.5 -29.5q-40 0 -68.5 29.5t-28.5 66.5q0 40 29 68t68 28zM342 1796q39 0 66.5 -27.5t27.5 -66.5q0 -38 -26.5 -67t-67.5 -29q-38 0 -67 29t-29 67q0 40 29 67t67 27z" />
    <glyph glyph-name="Igrave" unicode="&#xcc;" horiz-adv-x="618" 
d="M543 1473v-17q-66 0 -112 -37t-46 -123v-1118q0 -85 49 -123.5t109 -38.5v-16h-467v16q64 0 110.5 37.5t46.5 124.5v1118q0 92 -46.5 126t-110.5 34v17h467zM241 1939l197 -333h-37l-285 333h125z" />
    <glyph glyph-name="Iacute" unicode="&#xcd;" horiz-adv-x="618" 
d="M543 1473v-17q-66 0 -112 -37t-46 -123v-1118q0 -85 49 -123.5t109 -38.5v-16h-467v16q64 0 110.5 37.5t46.5 124.5v1118q0 92 -46.5 126t-110.5 34v17h467zM549 1933l-287 -327h-41l207 327h121z" />
    <glyph glyph-name="Icircumflex" unicode="&#xce;" horiz-adv-x="618" 
d="M543 1473v-17q-66 0 -112 -37t-46 -123v-1118q0 -85 49 -123.5t109 -38.5v-16h-467v16q64 0 110.5 37.5t46.5 124.5v1118q0 92 -46.5 126t-110.5 34v17h467zM329 1935l281 -329h-43l-262 219l-252 -219h-43l266 329h53z" />
    <glyph glyph-name="Idieresis" unicode="&#xcf;" horiz-adv-x="618" 
d="M543 1473v-17q-66 0 -112 -37t-46 -123v-1118q0 -85 49 -123.5t109 -38.5v-16h-467v16q64 0 110.5 37.5t46.5 124.5v1118q0 92 -46.5 126t-110.5 34v17h467zM512 1798q40 0 68 -28t28 -68q0 -37 -27.5 -66.5t-68.5 -29.5q-40 0 -68.5 29.5t-28.5 66.5q0 40 29 68t68 28z
M108 1796q39 0 66.5 -27.5t27.5 -66.5q0 -38 -26.5 -67t-67.5 -29q-38 0 -67 29t-29 67q0 40 29 67t67 27z" />
    <glyph glyph-name="Eth" unicode="&#xd0;" horiz-adv-x="1599" 
d="M233 178v535h-157v45h157v532q0 71 -37 118.5t-100 47.5h-20v17h567q214 0 376.5 -65.5t270.5 -180.5q70 -73 115 -157.5t67.5 -177t22.5 -183.5q0 -101 -24 -192t-69 -168.5t-107.5 -140.5t-145.5 -114q-71 -42 -163 -68t-249 -26h-661v16h20q69 0 103 52t34 110z
M385 1403v-645h395v-45h-395v-492q0 -62 20.5 -99t55.5 -52t80.5 -20t126.5 -5q160 0 270 31.5t213 140.5q76 81 122 198t46 283q0 131 -37 259.5t-113 228.5q-85 113 -218.5 177t-321.5 64q-97 0 -244 -24z" />
    <glyph glyph-name="Ntilde" unicode="&#xd1;" horiz-adv-x="1665" 
d="M1599 1473v-17q-56 -7 -88.5 -21.5t-50.5 -57t-18 -122.5v-1292h-10l-1131 1262v-906q0 -113 9 -168t26 -79q37 -52 129 -56v-16h-369v16q62 3 96.5 26.5t49 86t14.5 188.5v961l-49 55q-65 74 -104 93.5t-97 29.5v17h277l1114 -1248v951q0 107 -8.5 160t-45 85t-114.5 35
v17h370zM877 1626l-82 29q-114 39 -145 39q-35 0 -51 -24t-29 -62h-35q3 88 56.5 141t119.5 53q29 0 61 -9t91 -30q90 -30 108 -35.5t37 -5.5q17 0 44.5 15t41.5 65h37q-13 -82 -59 -137t-115 -55q-37 0 -80 16z" />
    <glyph glyph-name="Ograve" unicode="&#xd2;" horiz-adv-x="1772" 
d="M1663 735q0 -207 -102.5 -385t-279.5 -283.5t-392 -105.5q-216 0 -396 105.5t-283.5 284.5t-103.5 390q0 162 61.5 304.5t172 248.5t252 164t295.5 58q151 0 290 -55.5t249.5 -160.5t173.5 -249t63 -316zM1487 731q0 294 -104 460t-240 222.5t-256 56.5q-93 0 -193 -30.5
t-194.5 -111.5t-155.5 -228t-61 -363q0 -190 50.5 -331.5t139 -231t195 -129t221.5 -39.5q103 0 208.5 36.5t193 119t142 224t54.5 345.5zM817 1939l197 -333h-37l-285 333h125z" />
    <glyph glyph-name="Oacute" unicode="&#xd3;" horiz-adv-x="1772" 
d="M1663 735q0 -207 -102.5 -385t-279.5 -283.5t-392 -105.5q-216 0 -396 105.5t-283.5 284.5t-103.5 390q0 162 61.5 304.5t172 248.5t252 164t295.5 58q151 0 290 -55.5t249.5 -160.5t173.5 -249t63 -316zM1487 731q0 294 -104 460t-240 222.5t-256 56.5q-93 0 -193 -30.5
t-194.5 -111.5t-155.5 -228t-61 -363q0 -190 50.5 -331.5t139 -231t195 -129t221.5 -39.5q103 0 208.5 36.5t193 119t142 224t54.5 345.5zM1125 1933l-287 -327h-41l207 327h121z" />
    <glyph glyph-name="Ocircumflex" unicode="&#xd4;" horiz-adv-x="1772" 
d="M1663 735q0 -207 -102.5 -385t-279.5 -283.5t-392 -105.5q-216 0 -396 105.5t-283.5 284.5t-103.5 390q0 162 61.5 304.5t172 248.5t252 164t295.5 58q151 0 290 -55.5t249.5 -160.5t173.5 -249t63 -316zM1487 731q0 294 -104 460t-240 222.5t-256 56.5q-93 0 -193 -30.5
t-194.5 -111.5t-155.5 -228t-61 -363q0 -190 50.5 -331.5t139 -231t195 -129t221.5 -39.5q103 0 208.5 36.5t193 119t142 224t54.5 345.5zM905 1935l281 -329h-43l-262 219l-252 -219h-43l266 329h53z" />
    <glyph glyph-name="Otilde" unicode="&#xd5;" horiz-adv-x="1772" 
d="M1663 735q0 -207 -102.5 -385t-279.5 -283.5t-392 -105.5q-216 0 -396 105.5t-283.5 284.5t-103.5 390q0 162 61.5 304.5t172 248.5t252 164t295.5 58q151 0 290 -55.5t249.5 -160.5t173.5 -249t63 -316zM1487 731q0 294 -104 460t-240 222.5t-256 56.5q-93 0 -193 -30.5
t-194.5 -111.5t-155.5 -228t-61 -363q0 -190 50.5 -331.5t139 -231t195 -129t221.5 -39.5q103 0 208.5 36.5t193 119t142 224t54.5 345.5zM930 1626l-82 29q-114 39 -145 39q-35 0 -51 -24t-29 -62h-35q3 88 56.5 141t119.5 53q29 0 61 -9t91 -30q90 -30 108 -35.5t37 -5.5
q17 0 44.5 15t41.5 65h37q-13 -82 -59 -137t-115 -55q-37 0 -80 16z" />
    <glyph glyph-name="Odieresis" unicode="&#xd6;" horiz-adv-x="1772" 
d="M1663 735q0 -207 -102.5 -385t-279.5 -283.5t-392 -105.5q-216 0 -396 105.5t-283.5 284.5t-103.5 390q0 162 61.5 304.5t172 248.5t252 164t295.5 58q151 0 290 -55.5t249.5 -160.5t173.5 -249t63 -316zM1487 731q0 294 -104 460t-240 222.5t-256 56.5q-93 0 -193 -30.5
t-194.5 -111.5t-155.5 -228t-61 -363q0 -190 50.5 -331.5t139 -231t195 -129t221.5 -39.5q103 0 208.5 36.5t193 119t142 224t54.5 345.5zM1088 1798q40 0 68 -28t28 -68q0 -37 -27.5 -66.5t-68.5 -29.5q-40 0 -68.5 29.5t-28.5 66.5q0 40 29 68t68 28zM684 1796
q39 0 66.5 -27.5t27.5 -66.5q0 -38 -26.5 -67t-67.5 -29q-38 0 -67 29t-29 67q0 40 29 67t67 27z" />
    <glyph glyph-name="multiply" unicode="&#xd7;" horiz-adv-x="1167" 
d="M247 1112l340 -340l340 339l92 -92l-339 -340l340 -340l-93 -93l-340 340l-338 -337l-92 92l337 337l-340 341z" />
    <glyph glyph-name="Oslash" unicode="&#xd8;" horiz-adv-x="1772" 
d="M1386 1335l160 181l35 -29l-162 -180q123 -114 183.5 -263t60.5 -305q0 -212 -102.5 -390t-281 -283t-390.5 -105q-281 0 -500 178l-160 -180l-32 29l159 180q-139 134 -193 286t-54 287q0 163 62.5 306t169.5 248t247.5 163t296.5 58q94 0 184 -22t168.5 -61t144.5 -94
q0 -1 1.5 -2t2.5 -2zM418 240l909 1028q-44 52 -97.5 91.5t-113 64.5t-114 35.5t-117.5 10.5q-128 0 -264 -60t-236 -225t-100 -448q0 -179 36.5 -294.5t96.5 -202.5zM1356 1233l-910 -1030q80 -101 195.5 -149t247.5 -48q131 0 266.5 61t233.5 225.5t98 446.5
q0 192 -38.5 304.5t-92.5 189.5z" />
    <glyph glyph-name="Ugrave" unicode="&#xd9;" horiz-adv-x="1599" 
d="M1528 0h-309v244l-5 4q-64 -149 -191.5 -218t-266.5 -69q-157 0 -282.5 75t-184.5 185q-42 78 -53 162.5t-11 175.5v733q0 66 -26.5 111t-126.5 53v17h463v-17q-102 -12 -130 -59t-28 -105v-721q0 -220 45 -325q48 -112 144 -175t218 -63q51 0 121 18t131 60
q183 125 183 401v805q0 61 -28 108t-132 56v17h471v-17q-102 -5 -131 -57t-29 -105v-1116q0 -58 19.5 -91.5t54 -47.5t84.5 -23v-16zM731 1939l197 -333h-37l-285 333h125z" />
    <glyph glyph-name="Uacute" unicode="&#xda;" horiz-adv-x="1599" 
d="M1528 0h-309v244l-5 4q-64 -149 -191.5 -218t-266.5 -69q-157 0 -282.5 75t-184.5 185q-42 78 -53 162.5t-11 175.5v733q0 66 -26.5 111t-126.5 53v17h463v-17q-102 -12 -130 -59t-28 -105v-721q0 -220 45 -325q48 -112 144 -175t218 -63q51 0 121 18t131 60
q183 125 183 401v805q0 61 -28 108t-132 56v17h471v-17q-102 -5 -131 -57t-29 -105v-1116q0 -58 19.5 -91.5t54 -47.5t84.5 -23v-16zM1039 1933l-287 -327h-41l207 327h121z" />
    <glyph glyph-name="Ucircumflex" unicode="&#xdb;" horiz-adv-x="1599" 
d="M1528 0h-309v244l-5 4q-64 -149 -191.5 -218t-266.5 -69q-157 0 -282.5 75t-184.5 185q-42 78 -53 162.5t-11 175.5v733q0 66 -26.5 111t-126.5 53v17h463v-17q-102 -12 -130 -59t-28 -105v-721q0 -220 45 -325q48 -112 144 -175t218 -63q51 0 121 18t131 60
q183 125 183 401v805q0 61 -28 108t-132 56v17h471v-17q-102 -5 -131 -57t-29 -105v-1116q0 -58 19.5 -91.5t54 -47.5t84.5 -23v-16zM819 1935l281 -329h-43l-262 219l-252 -219h-43l266 329h53z" />
    <glyph glyph-name="Udieresis" unicode="&#xdc;" horiz-adv-x="1599" 
d="M1528 0h-309v244l-5 4q-64 -149 -191.5 -218t-266.5 -69q-157 0 -282.5 75t-184.5 185q-42 78 -53 162.5t-11 175.5v733q0 66 -26.5 111t-126.5 53v17h463v-17q-102 -12 -130 -59t-28 -105v-721q0 -220 45 -325q48 -112 144 -175t218 -63q51 0 121 18t131 60
q183 125 183 401v805q0 61 -28 108t-132 56v17h471v-17q-102 -5 -131 -57t-29 -105v-1116q0 -58 19.5 -91.5t54 -47.5t84.5 -23v-16zM1002 1798q40 0 68 -28t28 -68q0 -37 -27.5 -66.5t-68.5 -29.5q-40 0 -68.5 29.5t-28.5 66.5q0 40 29 68t68 28zM598 1796q39 0 66.5 -27.5
t27.5 -66.5q0 -38 -26.5 -67t-67.5 -29q-38 0 -67 29t-29 67q0 40 29 67t67 27z" />
    <glyph glyph-name="Yacute" unicode="&#xdd;" 
d="M1386 1473v-17q-66 -1 -117.5 -31t-80.5 -62.5t-62 -78.5l-344 -518v-590q0 -79 47.5 -118.5t114.5 -41.5v-16h-467v16q71 2 112.5 40.5t41.5 119.5v565l-375 562q-60 91 -107.5 121t-128.5 32v17h523v-17q-80 -3 -102.5 -34.5t-22.5 -59.5q0 -32 39 -90l307 -455
l272 410q62 92 62 141q0 34 -16.5 53t-33.5 25t-36 10v17h374zM945 1933l-287 -327h-41l207 327h121z" />
    <glyph glyph-name="Thorn" unicode="&#xde;" horiz-adv-x="1110" 
d="M545 1473v-17q-40 -2 -79.5 -19.5t-57.5 -45.5q-21 -31 -21 -99v-151h174q121 0 213.5 -33t154 -90t92 -128.5t30.5 -150.5q0 -76 -28 -146.5t-89.5 -126.5t-160.5 -89t-228 -33q-80 0 -158 12v-178q0 -157 158 -162v-16h-467v16q69 2 113.5 39.5t44.5 122.5v1114
q0 90 -46.5 126t-111.5 38v17h467zM387 1092v-697q66 -12 150 -12q144 0 244 73t100 273q0 164 -87.5 268.5t-265.5 104.5q-58 0 -141 -10z" />
    <glyph glyph-name="germandbls" unicode="&#xdf;" horiz-adv-x="1922" 
d="M831 1190h-16q-14 107 -93.5 187.5t-209.5 80.5q-85 0 -151 -40t-102 -109t-36 -158q0 -69 21.5 -122.5t63.5 -94.5t99 -76.5t154 -89.5q162 -89 252 -177.5t90 -242.5q0 -94 -48.5 -181.5t-146.5 -143.5t-243 -56q-91 0 -161 19.5t-142 54.5q-30 10 -41 10
q-21 0 -27.5 -15t-17.5 -65h-17v369h17q36 -162 140 -245t253 -83q112 0 179.5 42t93.5 102t26 120q0 124 -75.5 202.5t-229.5 160.5q-106 58 -157 90t-103.5 83t-83.5 120.5t-31 159.5q0 104 55 199t156 152.5t229 57.5q97 0 199 -33q16 -8 43 -8q33 0 45 45h16v-315z
M1792 1190h-16q-14 107 -93.5 187.5t-209.5 80.5q-85 0 -151 -40t-102 -109t-36 -158q0 -69 21.5 -122.5t63.5 -94.5t99 -76.5t154 -89.5q162 -89 252 -177.5t90 -242.5q0 -94 -48.5 -181.5t-146.5 -143.5t-243 -56q-91 0 -161 19.5t-142 54.5q-30 10 -41 10
q-21 0 -27.5 -15t-17.5 -65h-17v369h17q36 -162 140 -245t253 -83q112 0 179.5 42t93.5 102t26 120q0 124 -75.5 202.5t-229.5 160.5q-106 58 -157 90t-103.5 83t-83.5 120.5t-31 159.5q0 104 55 199t156 152.5t229 57.5q97 0 199 -33q16 -8 43 -8q33 0 45 45h16v-315z" />
    <glyph glyph-name="agrave" unicode="&#xe0;" 
d="M745 1491l441 -1262q35 -98 66 -142t59.5 -55.5t72.5 -15.5v-16h-481v16q74 0 114 14t40 76q0 34 -19 91q-4 8 -4 12l-131 391h-510l-117 -362q-24 -74 -24 -119q0 -62 31 -82.5t88 -20.5v-16h-346v16q74 7 118.5 56.5t77.5 150.5l416 1268h108zM410 653h469l-240 699h-4
zM637 1939l197 -333h-37l-285 333h125z" />
    <glyph glyph-name="aacute" unicode="&#xe1;" 
d="M745 1491l441 -1262q35 -98 66 -142t59.5 -55.5t72.5 -15.5v-16h-481v16q74 0 114 14t40 76q0 34 -19 91q-4 8 -4 12l-131 391h-510l-117 -362q-24 -74 -24 -119q0 -62 31 -82.5t88 -20.5v-16h-346v16q74 7 118.5 56.5t77.5 150.5l416 1268h108zM410 653h469l-240 699h-4
zM945 1933l-287 -327h-41l207 327h121z" />
    <glyph glyph-name="acircumflex" unicode="&#xe2;" 
d="M745 1491l441 -1262q35 -98 66 -142t59.5 -55.5t72.5 -15.5v-16h-481v16q74 0 114 14t40 76q0 34 -19 91q-4 8 -4 12l-131 391h-510l-117 -362q-24 -74 -24 -119q0 -62 31 -82.5t88 -20.5v-16h-346v16q74 7 118.5 56.5t77.5 150.5l416 1268h108zM410 653h469l-240 699h-4
zM725 1935l281 -329h-43l-262 219l-252 -219h-43l266 329h53z" />
    <glyph glyph-name="atilde" unicode="&#xe3;" 
d="M745 1491l441 -1262q35 -98 66 -142t59.5 -55.5t72.5 -15.5v-16h-481v16q74 0 114 14t40 76q0 34 -19 91q-4 8 -4 12l-131 391h-510l-117 -362q-24 -74 -24 -119q0 -62 31 -82.5t88 -20.5v-16h-346v16q74 7 118.5 56.5t77.5 150.5l416 1268h108zM410 653h469l-240 699h-4
zM750 1626l-82 29q-114 39 -145 39q-35 0 -51 -24t-29 -62h-35q3 88 56.5 141t119.5 53q29 0 61 -9t91 -30q90 -30 108 -35.5t37 -5.5q17 0 44.5 15t41.5 65h37q-13 -82 -59 -137t-115 -55q-37 0 -80 16z" />
    <glyph glyph-name="adieresis" unicode="&#xe4;" 
d="M745 1491l441 -1262q35 -98 66 -142t59.5 -55.5t72.5 -15.5v-16h-481v16q74 0 114 14t40 76q0 34 -19 91q-4 8 -4 12l-131 391h-510l-117 -362q-24 -74 -24 -119q0 -62 31 -82.5t88 -20.5v-16h-346v16q74 7 118.5 56.5t77.5 150.5l416 1268h108zM410 653h469l-240 699h-4
zM908 1798q40 0 68 -28t28 -68q0 -37 -27.5 -66.5t-68.5 -29.5q-40 0 -68.5 29.5t-28.5 66.5q0 40 29 68t68 28zM504 1796q39 0 66.5 -27.5t27.5 -66.5q0 -38 -26.5 -67t-67.5 -29q-38 0 -67 29t-29 67q0 40 29 67t67 27z" />
    <glyph glyph-name="aring" unicode="&#xe5;" 
d="M745 1491l441 -1262q35 -98 66 -142t59.5 -55.5t72.5 -15.5v-16h-481v16q74 0 114 14t40 76q0 34 -19 91q-4 8 -4 12l-131 391h-510l-117 -362q-24 -74 -24 -119q0 -62 31 -82.5t88 -20.5v-16h-346v16q74 7 118.5 56.5t77.5 150.5l416 1268h108zM410 653h469l-240 699h-4
zM705 1966q49 0 90.5 -24.5t65.5 -66.5t24 -89t-24 -89t-65.5 -66.5t-90.5 -24.5q-46 0 -87.5 24t-66 65.5t-24.5 90.5q0 47 23.5 89t64.5 66.5t90 24.5zM707 1907q-50 0 -85.5 -35.5t-35.5 -85.5t35.5 -85.5t85.5 -35.5t84.5 35.5t34.5 85.5t-34.5 85.5t-84.5 35.5z" />
    <glyph glyph-name="ae" unicode="&#xe6;" horiz-adv-x="1686" 
d="M1587 1473v-218h-16q0 44 -25 83.5t-63.5 64t-79.5 24.5h-389v-659h289q73 0 133.5 30.5t60.5 116.5h16v-333h-16q0 78 -58 109.5t-130 31.5h-295v-547q0 -68 31 -99.5t104 -31.5h201q77 0 127.5 18t85.5 60.5t57 109.5h16l-49 -233h-882v16q157 4 157 160v547h-332
l-217 -436l-4 -11q-57 -114 -57 -167q0 -37 18 -56.5t41.5 -26t59.5 -10.5v-16h-346v16q65 9 104.5 45t77.5 115l645 1297h735zM549 768h313v631h-4z" />
    <glyph glyph-name="ccedilla" unicode="&#xe7;" horiz-adv-x="1473" 
d="M1401 1143h-17q-18 109 -100 183t-190 109t-203 35q-169 0 -306 -92t-215.5 -259.5t-78.5 -383.5q0 -212 76.5 -374t216.5 -251.5t319 -89.5q263 0 483 197v-57q-88 -73 -153 -111t-138.5 -57t-201.5 -33l-27 -39q142 -11 142 -110q0 -66 -57.5 -90.5t-119.5 -24.5
q-112 0 -210 51v37q1 -1 16 -6q51 -17 88 -17q52 0 78 21.5t26 50.5t-16 42.5t-37 19.5l45 65q-130 18 -217 41.5t-188 93t-185 197.5q-43 64 -71.5 138.5t-41 144.5t-12.5 139q0 193 94 379t282 305t450 119q122 0 221 -29q144 -45 188 -45q30 0 39 15t15 40h16z" />
    <glyph glyph-name="egrave" unicode="&#xe8;" horiz-adv-x="1044" 
d="M72 1456v17h878v-232h-14q0 186 -248 186h-307v-669h270q80 0 143 26t72 119h15v-334h-15q-9 57 -34 87.5t-49.5 40.5t-43.5 10q-36 6 -75 6h-283v-523q0 -59 22.5 -102t104.5 -43h219q79 0 130 23t80.5 64t49.5 99h14l-51 -231h-878v16h20q47 0 92 38t45 124v1110
q0 68 -30.5 118t-106.5 50h-20zM454 1939l197 -333h-37l-285 333h125z" />
    <glyph glyph-name="eacute" unicode="&#xe9;" horiz-adv-x="1044" 
d="M72 1456v17h878v-232h-14q0 186 -248 186h-307v-669h270q80 0 143 26t72 119h15v-334h-15q-9 57 -34 87.5t-49.5 40.5t-43.5 10q-36 6 -75 6h-283v-523q0 -59 22.5 -102t104.5 -43h219q79 0 130 23t80.5 64t49.5 99h14l-51 -231h-878v16h20q47 0 92 38t45 124v1110
q0 68 -30.5 118t-106.5 50h-20zM762 1933l-287 -327h-41l207 327h121z" />
    <glyph glyph-name="ecircumflex" unicode="&#xea;" horiz-adv-x="1044" 
d="M72 1456v17h878v-232h-14q0 186 -248 186h-307v-669h270q80 0 143 26t72 119h15v-334h-15q-9 57 -34 87.5t-49.5 40.5t-43.5 10q-36 6 -75 6h-283v-523q0 -59 22.5 -102t104.5 -43h219q79 0 130 23t80.5 64t49.5 99h14l-51 -231h-878v16h20q47 0 92 38t45 124v1110
q0 68 -30.5 118t-106.5 50h-20zM542 1935l281 -329h-43l-262 219l-252 -219h-43l266 329h53z" />
    <glyph glyph-name="edieresis" unicode="&#xeb;" horiz-adv-x="1044" 
d="M72 1456v17h878v-232h-14q0 186 -248 186h-307v-669h270q80 0 143 26t72 119h15v-334h-15q-9 57 -34 87.5t-49.5 40.5t-43.5 10q-36 6 -75 6h-283v-523q0 -59 22.5 -102t104.5 -43h219q79 0 130 23t80.5 64t49.5 99h14l-51 -231h-878v16h20q47 0 92 38t45 124v1110
q0 68 -30.5 118t-106.5 50h-20zM746 1798q40 0 68 -28t28 -68q0 -37 -27.5 -66.5t-68.5 -29.5q-40 0 -68.5 29.5t-28.5 66.5q0 40 29 68t68 28zM342 1796q39 0 66.5 -27.5t27.5 -66.5q0 -38 -26.5 -67t-67.5 -29q-38 0 -67 29t-29 67q0 40 29 67t67 27z" />
    <glyph glyph-name="igrave" unicode="&#xec;" horiz-adv-x="618" 
d="M543 1473v-17q-66 0 -112 -37t-46 -123v-1118q0 -85 49 -123.5t109 -38.5v-16h-467v16q64 0 110.5 37.5t46.5 124.5v1118q0 92 -46.5 126t-110.5 34v17h467zM241 1939l197 -333h-37l-285 333h125z" />
    <glyph glyph-name="iacute" unicode="&#xed;" horiz-adv-x="618" 
d="M543 1473v-17q-66 0 -112 -37t-46 -123v-1118q0 -85 49 -123.5t109 -38.5v-16h-467v16q64 0 110.5 37.5t46.5 124.5v1118q0 92 -46.5 126t-110.5 34v17h467zM549 1933l-287 -327h-41l207 327h121z" />
    <glyph glyph-name="icircumflex" unicode="&#xee;" horiz-adv-x="618" 
d="M543 1473v-17q-66 0 -112 -37t-46 -123v-1118q0 -85 49 -123.5t109 -38.5v-16h-467v16q64 0 110.5 37.5t46.5 124.5v1118q0 92 -46.5 126t-110.5 34v17h467zM329 1935l281 -329h-43l-262 219l-252 -219h-43l266 329h53z" />
    <glyph glyph-name="idieresis" unicode="&#xef;" horiz-adv-x="618" 
d="M543 1473v-17q-66 0 -112 -37t-46 -123v-1118q0 -85 49 -123.5t109 -38.5v-16h-467v16q64 0 110.5 37.5t46.5 124.5v1118q0 92 -46.5 126t-110.5 34v17h467zM512 1798q40 0 68 -28t28 -68q0 -37 -27.5 -66.5t-68.5 -29.5q-40 0 -68.5 29.5t-28.5 66.5q0 40 29 68t68 28z
M108 1796q39 0 66.5 -27.5t27.5 -66.5q0 -38 -26.5 -67t-67.5 -29q-38 0 -67 29t-29 67q0 40 29 67t67 27z" />
    <glyph glyph-name="eth" unicode="&#xf0;" horiz-adv-x="1599" 
d="M233 178v535h-157v45h157v532q0 71 -37 118.5t-100 47.5h-20v17h567q214 0 376.5 -65.5t270.5 -180.5q70 -73 115 -157.5t67.5 -177t22.5 -183.5q0 -101 -24 -192t-69 -168.5t-107.5 -140.5t-145.5 -114q-71 -42 -163 -68t-249 -26h-661v16h20q69 0 103 52t34 110z
M385 1403v-645h395v-45h-395v-492q0 -62 20.5 -99t55.5 -52t80.5 -20t126.5 -5q160 0 270 31.5t213 140.5q76 81 122 198t46 283q0 131 -37 259.5t-113 228.5q-85 113 -218.5 177t-321.5 64q-97 0 -244 -24z" />
    <glyph glyph-name="ntilde" unicode="&#xf1;" horiz-adv-x="1665" 
d="M1599 1473v-17q-56 -7 -88.5 -21.5t-50.5 -57t-18 -122.5v-1292h-10l-1131 1262v-906q0 -113 9 -168t26 -79q37 -52 129 -56v-16h-369v16q62 3 96.5 26.5t49 86t14.5 188.5v961l-49 55q-65 74 -104 93.5t-97 29.5v17h277l1114 -1248v951q0 107 -8.5 160t-45 85t-114.5 35
v17h370zM877 1626l-82 29q-114 39 -145 39q-35 0 -51 -24t-29 -62h-35q3 88 56.5 141t119.5 53q29 0 61 -9t91 -30q90 -30 108 -35.5t37 -5.5q17 0 44.5 15t41.5 65h37q-13 -82 -59 -137t-115 -55q-37 0 -80 16z" />
    <glyph glyph-name="ograve" unicode="&#xf2;" horiz-adv-x="1772" 
d="M1663 735q0 -207 -102.5 -385t-279.5 -283.5t-392 -105.5q-216 0 -396 105.5t-283.5 284.5t-103.5 390q0 162 61.5 304.5t172 248.5t252 164t295.5 58q151 0 290 -55.5t249.5 -160.5t173.5 -249t63 -316zM1487 731q0 294 -104 460t-240 222.5t-256 56.5q-93 0 -193 -30.5
t-194.5 -111.5t-155.5 -228t-61 -363q0 -190 50.5 -331.5t139 -231t195 -129t221.5 -39.5q103 0 208.5 36.5t193 119t142 224t54.5 345.5zM817 1939l197 -333h-37l-285 333h125z" />
    <glyph glyph-name="oacute" unicode="&#xf3;" horiz-adv-x="1772" 
d="M1663 735q0 -207 -102.5 -385t-279.5 -283.5t-392 -105.5q-216 0 -396 105.5t-283.5 284.5t-103.5 390q0 162 61.5 304.5t172 248.5t252 164t295.5 58q151 0 290 -55.5t249.5 -160.5t173.5 -249t63 -316zM1487 731q0 294 -104 460t-240 222.5t-256 56.5q-93 0 -193 -30.5
t-194.5 -111.5t-155.5 -228t-61 -363q0 -190 50.5 -331.5t139 -231t195 -129t221.5 -39.5q103 0 208.5 36.5t193 119t142 224t54.5 345.5zM1125 1933l-287 -327h-41l207 327h121z" />
    <glyph glyph-name="ocircumflex" unicode="&#xf4;" horiz-adv-x="1772" 
d="M1663 735q0 -207 -102.5 -385t-279.5 -283.5t-392 -105.5q-216 0 -396 105.5t-283.5 284.5t-103.5 390q0 162 61.5 304.5t172 248.5t252 164t295.5 58q151 0 290 -55.5t249.5 -160.5t173.5 -249t63 -316zM1487 731q0 294 -104 460t-240 222.5t-256 56.5q-93 0 -193 -30.5
t-194.5 -111.5t-155.5 -228t-61 -363q0 -190 50.5 -331.5t139 -231t195 -129t221.5 -39.5q103 0 208.5 36.5t193 119t142 224t54.5 345.5zM905 1935l281 -329h-43l-262 219l-252 -219h-43l266 329h53z" />
    <glyph glyph-name="otilde" unicode="&#xf5;" horiz-adv-x="1772" 
d="M1663 735q0 -207 -102.5 -385t-279.5 -283.5t-392 -105.5q-216 0 -396 105.5t-283.5 284.5t-103.5 390q0 162 61.5 304.5t172 248.5t252 164t295.5 58q151 0 290 -55.5t249.5 -160.5t173.5 -249t63 -316zM1487 731q0 294 -104 460t-240 222.5t-256 56.5q-93 0 -193 -30.5
t-194.5 -111.5t-155.5 -228t-61 -363q0 -190 50.5 -331.5t139 -231t195 -129t221.5 -39.5q103 0 208.5 36.5t193 119t142 224t54.5 345.5zM930 1626l-82 29q-114 39 -145 39q-35 0 -51 -24t-29 -62h-35q3 88 56.5 141t119.5 53q29 0 61 -9t91 -30q90 -30 108 -35.5t37 -5.5
q17 0 44.5 15t41.5 65h37q-13 -82 -59 -137t-115 -55q-37 0 -80 16z" />
    <glyph glyph-name="odieresis" unicode="&#xf6;" horiz-adv-x="1772" 
d="M1663 735q0 -207 -102.5 -385t-279.5 -283.5t-392 -105.5q-216 0 -396 105.5t-283.5 284.5t-103.5 390q0 162 61.5 304.5t172 248.5t252 164t295.5 58q151 0 290 -55.5t249.5 -160.5t173.5 -249t63 -316zM1487 731q0 294 -104 460t-240 222.5t-256 56.5q-93 0 -193 -30.5
t-194.5 -111.5t-155.5 -228t-61 -363q0 -190 50.5 -331.5t139 -231t195 -129t221.5 -39.5q103 0 208.5 36.5t193 119t142 224t54.5 345.5zM1088 1798q40 0 68 -28t28 -68q0 -37 -27.5 -66.5t-68.5 -29.5q-40 0 -68.5 29.5t-28.5 66.5q0 40 29 68t68 28zM684 1796
q39 0 66.5 -27.5t27.5 -66.5q0 -38 -26.5 -67t-67.5 -29q-38 0 -67 29t-29 67q0 40 29 67t67 27z" />
    <glyph glyph-name="divide" unicode="&#xf7;" horiz-adv-x="1124" 
d="M20 483v113h1078v-113h-1078zM434 819q0 48 33.5 81.5t81.5 33.5q30 0 56.5 -15t42.5 -42t16 -58q0 -47 -34.5 -80.5t-80.5 -33.5q-47 0 -81 34t-34 80zM434 260q0 48 33.5 81.5t81.5 33.5q30 0 56.5 -15t42.5 -42t16 -58q0 -47 -34 -81t-81 -34q-48 0 -81.5 34.5
t-33.5 80.5z" />
    <glyph glyph-name="oslash" unicode="&#xf8;" horiz-adv-x="1772" 
d="M1386 1335l160 181l35 -29l-162 -180q123 -114 183.5 -263t60.5 -305q0 -212 -102.5 -390t-281 -283t-390.5 -105q-281 0 -500 178l-160 -180l-32 29l159 180q-139 134 -193 286t-54 287q0 163 62.5 306t169.5 248t247.5 163t296.5 58q94 0 184 -22t168.5 -61t144.5 -94
q0 -1 1.5 -2t2.5 -2zM418 240l909 1028q-44 52 -97.5 91.5t-113 64.5t-114 35.5t-117.5 10.5q-128 0 -264 -60t-236 -225t-100 -448q0 -179 36.5 -294.5t96.5 -202.5zM1356 1233l-910 -1030q80 -101 195.5 -149t247.5 -48q131 0 266.5 61t233.5 225.5t98 446.5
q0 192 -38.5 304.5t-92.5 189.5z" />
    <glyph glyph-name="ugrave" unicode="&#xf9;" horiz-adv-x="1599" 
d="M1528 0h-309v244l-5 4q-64 -149 -191.5 -218t-266.5 -69q-157 0 -282.5 75t-184.5 185q-42 78 -53 162.5t-11 175.5v733q0 66 -26.5 111t-126.5 53v17h463v-17q-102 -12 -130 -59t-28 -105v-721q0 -220 45 -325q48 -112 144 -175t218 -63q51 0 121 18t131 60
q183 125 183 401v805q0 61 -28 108t-132 56v17h471v-17q-102 -5 -131 -57t-29 -105v-1116q0 -58 19.5 -91.5t54 -47.5t84.5 -23v-16zM731 1939l197 -333h-37l-285 333h125z" />
    <glyph glyph-name="uacute" unicode="&#xfa;" horiz-adv-x="1599" 
d="M1528 0h-309v244l-5 4q-64 -149 -191.5 -218t-266.5 -69q-157 0 -282.5 75t-184.5 185q-42 78 -53 162.5t-11 175.5v733q0 66 -26.5 111t-126.5 53v17h463v-17q-102 -12 -130 -59t-28 -105v-721q0 -220 45 -325q48 -112 144 -175t218 -63q51 0 121 18t131 60
q183 125 183 401v805q0 61 -28 108t-132 56v17h471v-17q-102 -5 -131 -57t-29 -105v-1116q0 -58 19.5 -91.5t54 -47.5t84.5 -23v-16zM1039 1933l-287 -327h-41l207 327h121z" />
    <glyph glyph-name="ucircumflex" unicode="&#xfb;" horiz-adv-x="1599" 
d="M1528 0h-309v244l-5 4q-64 -149 -191.5 -218t-266.5 -69q-157 0 -282.5 75t-184.5 185q-42 78 -53 162.5t-11 175.5v733q0 66 -26.5 111t-126.5 53v17h463v-17q-102 -12 -130 -59t-28 -105v-721q0 -220 45 -325q48 -112 144 -175t218 -63q51 0 121 18t131 60
q183 125 183 401v805q0 61 -28 108t-132 56v17h471v-17q-102 -5 -131 -57t-29 -105v-1116q0 -58 19.5 -91.5t54 -47.5t84.5 -23v-16zM819 1935l281 -329h-43l-262 219l-252 -219h-43l266 329h53z" />
    <glyph glyph-name="udieresis" unicode="&#xfc;" horiz-adv-x="1599" 
d="M1528 0h-309v244l-5 4q-64 -149 -191.5 -218t-266.5 -69q-157 0 -282.5 75t-184.5 185q-42 78 -53 162.5t-11 175.5v733q0 66 -26.5 111t-126.5 53v17h463v-17q-102 -12 -130 -59t-28 -105v-721q0 -220 45 -325q48 -112 144 -175t218 -63q51 0 121 18t131 60
q183 125 183 401v805q0 61 -28 108t-132 56v17h471v-17q-102 -5 -131 -57t-29 -105v-1116q0 -58 19.5 -91.5t54 -47.5t84.5 -23v-16zM1002 1798q40 0 68 -28t28 -68q0 -37 -27.5 -66.5t-68.5 -29.5q-40 0 -68.5 29.5t-28.5 66.5q0 40 29 68t68 28zM598 1796q39 0 66.5 -27.5
t27.5 -66.5q0 -38 -26.5 -67t-67.5 -29q-38 0 -67 29t-29 67q0 40 29 67t67 27z" />
    <glyph glyph-name="yacute" unicode="&#xfd;" 
d="M1386 1473v-17q-66 -1 -117.5 -31t-80.5 -62.5t-62 -78.5l-344 -518v-590q0 -79 47.5 -118.5t114.5 -41.5v-16h-467v16q71 2 112.5 40.5t41.5 119.5v565l-375 562q-60 91 -107.5 121t-128.5 32v17h523v-17q-80 -3 -102.5 -34.5t-22.5 -59.5q0 -32 39 -90l307 -455
l272 410q62 92 62 141q0 34 -16.5 53t-33.5 25t-36 10v17h374zM945 1933l-287 -327h-41l207 327h121z" />
    <glyph glyph-name="thorn" unicode="&#xfe;" horiz-adv-x="1110" 
d="M545 1473v-17q-40 -2 -79.5 -19.5t-57.5 -45.5q-21 -31 -21 -99v-151h174q121 0 213.5 -33t154 -90t92 -128.5t30.5 -150.5q0 -76 -28 -146.5t-89.5 -126.5t-160.5 -89t-228 -33q-80 0 -158 12v-178q0 -157 158 -162v-16h-467v16q69 2 113.5 39.5t44.5 122.5v1114
q0 90 -46.5 126t-111.5 38v17h467zM387 1092v-697q66 -12 150 -12q144 0 244 73t100 273q0 164 -87.5 268.5t-265.5 104.5q-58 0 -141 -10z" />
    <glyph glyph-name="ydieresis" unicode="&#xff;" 
d="M1386 1473v-17q-66 -1 -117.5 -31t-80.5 -62.5t-62 -78.5l-344 -518v-590q0 -79 47.5 -118.5t114.5 -41.5v-16h-467v16q71 2 112.5 40.5t41.5 119.5v565l-375 562q-60 91 -107.5 121t-128.5 32v17h523v-17q-80 -3 -102.5 -34.5t-22.5 -59.5q0 -32 39 -90l307 -455
l272 410q62 92 62 141q0 34 -16.5 53t-33.5 25t-36 10v17h374zM908 1798q40 0 68 -28t28 -68q0 -37 -27.5 -66.5t-68.5 -29.5q-40 0 -68.5 29.5t-28.5 66.5q0 40 29 68t68 28zM504 1796q39 0 66.5 -27.5t27.5 -66.5q0 -38 -26.5 -67t-67.5 -29q-38 0 -67 29t-29 67
q0 40 29 67t67 27z" />
    <glyph glyph-name="dotlessi" unicode="&#x131;" horiz-adv-x="618" 
d="M543 1473v-17q-66 0 -112 -37t-46 -123v-1118q0 -85 49 -123.5t109 -38.5v-16h-467v16q64 0 110.5 37.5t46.5 124.5v1118q0 92 -46.5 126t-110.5 34v17h467z" />
    <glyph glyph-name="OE" unicode="&#x152;" horiz-adv-x="2028" 
d="M1942 1473v-220h-17q-27 174 -250 174h-305v-659h256q135 0 178 40t51 97h17v-334h-17q-11 69 -43.5 110.5t-134.5 41.5h-307v-537q0 -35 6 -64t34.5 -53t86.5 -24h158q114 0 173.5 16t87 52.5t54.5 115.5h17l-45 -229h-715q-11 0 -21.5 -0.5t-44 -2.5t-52.5 -4t-40 -3
q-70 -6 -149 -6q-214 0 -369 69.5t-249.5 183t-137.5 243t-43 251.5q0 167 66.5 305.5t181.5 239t255.5 153t288.5 52.5q76 0 152 -6l117 -2h760zM1221 268v889q0 145 -66.5 212t-222.5 67q-133 0 -250 -45t-203 -133t-134 -222t-48 -301q0 -184 46 -308.5t118 -211.5
q69 -84 179 -135t275 -51q132 0 197 35t82.5 81.5t26.5 122.5z" />
    <glyph glyph-name="oe" unicode="&#x153;" horiz-adv-x="2028" 
d="M1942 1473v-220h-17q-27 174 -250 174h-305v-659h256q135 0 178 40t51 97h17v-334h-17q-11 69 -43.5 110.5t-134.5 41.5h-307v-537q0 -35 6 -64t34.5 -53t86.5 -24h158q114 0 173.5 16t87 52.5t54.5 115.5h17l-45 -229h-715q-11 0 -21.5 -0.5t-44 -2.5t-52.5 -4t-40 -3
q-70 -6 -149 -6q-214 0 -369 69.5t-249.5 183t-137.5 243t-43 251.5q0 167 66.5 305.5t181.5 239t255.5 153t288.5 52.5q76 0 152 -6l117 -2h760zM1221 268v889q0 145 -66.5 212t-222.5 67q-133 0 -250 -45t-203 -133t-134 -222t-48 -301q0 -184 46 -308.5t118 -211.5
q69 -84 179 -135t275 -51q132 0 197 35t82.5 81.5t26.5 122.5z" />
    <glyph glyph-name="Scaron" unicode="&#x160;" horiz-adv-x="961" 
d="M831 1190h-16q-14 107 -93.5 187.5t-209.5 80.5q-85 0 -151 -40t-102 -109t-36 -158q0 -69 21.5 -122.5t63.5 -94.5t99 -76.5t154 -89.5q162 -89 252 -177.5t90 -242.5q0 -94 -48.5 -181.5t-146.5 -143.5t-243 -56q-91 0 -161 19.5t-142 54.5q-30 10 -41 10
q-21 0 -27.5 -15t-17.5 -65h-17v369h17q36 -162 140 -245t253 -83q112 0 179.5 42t93.5 102t26 120q0 124 -75.5 202.5t-229.5 160.5q-106 58 -157 90t-103.5 83t-83.5 120.5t-31 159.5q0 104 55 199t156 152.5t229 57.5q97 0 199 -33q16 -8 43 -8q33 0 45 45h16v-315z
M461 1606l-281 329h43l262 -217l252 217h43l-266 -329h-53z" />
    <glyph glyph-name="scaron" unicode="&#x161;" horiz-adv-x="961" 
d="M831 1190h-16q-14 107 -93.5 187.5t-209.5 80.5q-85 0 -151 -40t-102 -109t-36 -158q0 -69 21.5 -122.5t63.5 -94.5t99 -76.5t154 -89.5q162 -89 252 -177.5t90 -242.5q0 -94 -48.5 -181.5t-146.5 -143.5t-243 -56q-91 0 -161 19.5t-142 54.5q-30 10 -41 10
q-21 0 -27.5 -15t-17.5 -65h-17v369h17q36 -162 140 -245t253 -83q112 0 179.5 42t93.5 102t26 120q0 124 -75.5 202.5t-229.5 160.5q-106 58 -157 90t-103.5 83t-83.5 120.5t-31 159.5q0 104 55 199t156 152.5t229 57.5q97 0 199 -33q16 -8 43 -8q33 0 45 45h16v-315z
M461 1606l-281 329h43l262 -217l252 217h43l-266 -329h-53z" />
    <glyph glyph-name="Ydieresis" unicode="&#x178;" 
d="M1386 1473v-17q-66 -1 -117.5 -31t-80.5 -62.5t-62 -78.5l-344 -518v-590q0 -79 47.5 -118.5t114.5 -41.5v-16h-467v16q71 2 112.5 40.5t41.5 119.5v565l-375 562q-60 91 -107.5 121t-128.5 32v17h523v-17q-80 -3 -102.5 -34.5t-22.5 -59.5q0 -32 39 -90l307 -455
l272 410q62 92 62 141q0 34 -16.5 53t-33.5 25t-36 10v17h374zM908 1798q40 0 68 -28t28 -68q0 -37 -27.5 -66.5t-68.5 -29.5q-40 0 -68.5 29.5t-28.5 66.5q0 40 29 68t68 28zM504 1796q39 0 66.5 -27.5t27.5 -66.5q0 -38 -26.5 -67t-67.5 -29q-38 0 -67 29t-29 67
q0 40 29 67t67 27z" />
    <glyph glyph-name="florin" unicode="&#x192;" horiz-adv-x="1366" 
d="M1090 932l-9 -55h-219l-112 -586q-4 -16 -5.5 -24t-5.5 -17q0 -5 -8 -41q-20 -85 -43 -155t-75.5 -150t-142 -132.5t-220.5 -52.5q-160 0 -250 48l33 147h37q18 -63 58 -111.5t128 -48.5q54 0 112 24t93 58q37 36 63 87t40 98.5t40 152.5q0 2 4 18t4 17l129 668h-217
l8 55h218l26 127q27 131 60.5 222.5t114 163t216.5 71.5q64 0 146 -25l14 22h39l-39 -180h-41q-15 67 -42.5 106.5t-94.5 39.5q-108 0 -156.5 -96.5t-77.5 -239.5l-43 -211h218z" />
    <glyph glyph-name="circumflex" unicode="&#x2c6;" horiz-adv-x="682" 
d="M360 1935l281 -329h-43l-262 219l-252 -219h-43l266 329h53z" />
    <glyph glyph-name="caron" unicode="&#x2c7;" horiz-adv-x="682" 
d="M322 1606l-281 329h43l262 -217l252 217h43l-266 -329h-53z" />
    <glyph glyph-name="macron" unicode="&#x2c9;" horiz-adv-x="682" 
d="M43 1759h596v-108h-596v108z" />
    <glyph glyph-name="breve" unicode="&#x2d8;" horiz-adv-x="682" 
d="M43 1909h37q10 -78 63 -120t191 -42q99 0 154.5 15.5t79.5 50t32 96.5h39q2 -68 -23 -136t-93.5 -117.5t-182.5 -49.5q-119 0 -187 51.5t-90 119.5t-20 132z" />
    <glyph glyph-name="dotaccent" unicode="&#x2d9;" horiz-adv-x="682" 
d="M340 1798q41 0 68.5 -27.5t27.5 -66.5q0 -38 -27 -67t-69 -29q-38 0 -66 29t-28 67q0 40 28 67t66 27z" />
    <glyph glyph-name="ring" unicode="&#x2da;" horiz-adv-x="682" 
d="M340 1966q49 0 90.5 -24.5t65.5 -66.5t24 -89t-24 -89t-65.5 -66.5t-90.5 -24.5q-46 0 -87.5 24t-66 65.5t-24.5 90.5q0 47 23.5 89t64.5 66.5t90 24.5zM342 1907q-50 0 -85.5 -35.5t-35.5 -85.5t35.5 -85.5t85.5 -35.5t84.5 35.5t34.5 85.5t-34.5 85.5t-84.5 35.5z" />
    <glyph glyph-name="ogonek" unicode="&#x2db;" horiz-adv-x="682" 
d="M571 -205l25 -26q-107 -107 -231 -107q-92 0 -129 48.5t-37 105.5q0 104 88 196h45q-1 -2 -9 -20t-14 -35.5t-10 -40t-4 -39.5q0 -62 37.5 -94.5t99.5 -32.5q69 0 139 45z" />
    <glyph glyph-name="tilde" unicode="&#x2dc;" horiz-adv-x="682" 
d="M385 1626l-82 29q-114 39 -145 39q-35 0 -51 -24t-29 -62h-35q3 88 56.5 141t119.5 53q29 0 61 -9t91 -30q90 -30 108 -35.5t37 -5.5q17 0 44.5 15t41.5 65h37q-13 -82 -59 -137t-115 -55q-37 0 -80 16z" />
    <glyph glyph-name="hungarumlaut" unicode="&#x2dd;" horiz-adv-x="682" 
d="M483 1933l-286 -327h-41l204 327h123zM725 1933l-287 -327h-41l205 327h123z" />
    <glyph glyph-name="pi" unicode="&#x3c0;" horiz-adv-x="1124" 
d="M686 821h-231q-17 -201 -33 -329.5t-31 -221t-31 -168.5q-13 -59 -38 -92.5t-74 -46.5q-40 -10 -79.5 16t-47.5 62q-6 27 -3 45.5t11 34.5t18 29t21 26q3 4 34.5 41t47.5 67.5t20 67.5l60 469h-97q-41 0 -78 -19.5t-57 -45.5l-43 -64h-35q14 39 35 93.5t58 105.5
q29 43 78 74.5t114 31.5h764v-176h-258q-25 -239 -25 -481q0 -44 15 -86t37 -64q28 -26 68.5 -33.5t82.5 25.5q23 18 33.5 41t13.5 44l6 42h43q-1 -83 -25 -149.5t-57 -107t-65 -58.5q-36 -22 -84 -26.5t-88 22.5q-66 48 -100 151q-19 60 -21.5 158.5t6.5 192.5z" />
    <glyph glyph-name="endash" unicode="&#x2013;" horiz-adv-x="1024" 
d="M-12 764h1048v-66h-1048v66z" />
    <glyph glyph-name="emdash" unicode="&#x2014;" horiz-adv-x="2048" 
d="M-12 764h2072v-66h-2072v66z" />
    <glyph glyph-name="quoteleft" unicode="&#x2018;" horiz-adv-x="299" 
d="M233 1518v-15q-56 -38 -86 -99.5t-30 -117.5q0 -63 22 -63q-2 0 12.5 3t20.5 3q23 0 43 -13t32.5 -35.5t12.5 -43.5q0 -34 -26 -61t-64 -27q-49 0 -90 46.5t-41 133.5q0 89 48 166t146 123z" />
    <glyph glyph-name="quoteright" unicode="&#x2019;" horiz-adv-x="299" 
d="M61 1049v14q64 42 91.5 103.5t27.5 115.5q0 59 -20 59h-51q-32 6 -51 31t-19 60q0 42 27 63t63 21t66 -22.5t47.5 -63t17.5 -91.5q0 -92 -54 -173.5t-145 -116.5z" />
    <glyph glyph-name="quotesinglbase" unicode="&#x201a;" horiz-adv-x="299" 
d="M61 -297v12q2 1 33.5 29.5t57.5 80.5t26 120q0 55 -16 55q-1 0 -15 -4l-16 -4q-37 0 -64.5 25t-27.5 65q0 38 28 64t66 26q31 0 61 -22.5t48 -62.5t18 -89q0 -100 -51 -175t-148 -120z" />
    <glyph glyph-name="quotedblleft" unicode="&#x201c;" horiz-adv-x="575" 
d="M233 1518v-15q-56 -38 -86 -99.5t-30 -117.5q0 -63 22 -63q-2 0 12.5 3t20.5 3q23 0 43 -13t32.5 -35.5t12.5 -43.5q0 -34 -26 -61t-64 -27q-49 0 -90 46.5t-41 133.5q0 89 48 166t146 123zM512 1518v-15q-57 -37 -87 -98t-30 -119q0 -63 23 -63q-3 0 11.5 3t19.5 3
q37 0 63.5 -27.5t26.5 -64.5q0 -33 -27.5 -60.5t-65.5 -27.5q-49 0 -90 46.5t-41 133.5t49.5 165t147.5 124z" />
    <glyph glyph-name="quotedblright" unicode="&#x201d;" horiz-adv-x="575" 
d="M63 1049v14q64 42 91.5 103.5t27.5 115.5q0 59 -20 59h-51q-32 6 -51 31t-19 60q0 42 27 63t63 21t66 -22.5t47.5 -63t17.5 -91.5q0 -92 -54 -173.5t-145 -116.5zM342 1049v14q62 42 89.5 105t27.5 114q0 59 -21 59q-15 0 -31 -0.5t-20 0.5q-31 6 -50.5 31t-19.5 60
q0 41 28 62.5t63 21.5q57 0 95 -50t38 -127q0 -92 -54 -173.5t-145 -116.5z" />
    <glyph glyph-name="quotedblbase" unicode="&#x201e;" horiz-adv-x="575" 
d="M59 -299v14q63 41 91 103t28 116q0 60 -20 60q-15 0 -31.5 -0.5t-20.5 0.5q-32 5 -50.5 31.5t-18.5 58.5q0 42 27 63t63 21t66 -22.5t47.5 -62.5t17.5 -91q0 -92 -54 -174t-145 -117zM338 -299v14q62 42 89.5 105t27.5 114q0 60 -21 60q-15 0 -31 -0.5t-20 0.5
q-31 5 -50.5 30.5t-19.5 59.5q0 42 27 63t63 21q38 0 68.5 -23t48 -64t17.5 -89q0 -92 -54 -174t-145 -117z" />
    <glyph glyph-name="dagger" unicode="&#x2020;" horiz-adv-x="934" 
d="M385 -346v1212h-328v160h328v406h147v-406h330v-160h-330v-1212h-147z" />
    <glyph glyph-name="daggerdbl" unicode="&#x2021;" horiz-adv-x="934" 
d="M387 -346v370h-330v161h330v725h-330v161h330v375h147v-375h331v-161h-331v-725h331v-161h-331v-370h-147z" />
    <glyph glyph-name="bullet" unicode="&#x2022;" horiz-adv-x="575" 
d="M289 903q61 0 114 -30.5t84 -83t31 -115.5t-31 -114.5t-83.5 -82.5t-114.5 -31q-63 0 -115.5 31t-83.5 82.5t-31 114.5t31 115.5t84 83t115 30.5z" />
    <glyph glyph-name="ellipsis" unicode="&#x2026;" horiz-adv-x="2048" 
d="M432 47q0 -37 -27 -61.5t-63 -24.5q-37 0 -64.5 25.5t-27.5 62.5t28 62.5t64 25.5q38 0 64 -26t26 -64zM1798 47q0 -37 -27.5 -61.5t-64.5 -24.5q-36 0 -63 26t-27 62q0 37 27.5 62.5t62.5 25.5q39 0 65.5 -26.5t26.5 -63.5zM1114 47q0 -37 -27 -61.5t-63 -24.5
q-37 0 -64.5 25.5t-27.5 62.5t28 62.5t64 25.5q38 0 64 -26t26 -64z" />
    <glyph glyph-name="perthousand" unicode="&#x2030;" horiz-adv-x="1679" 
d="M262 -54l493 1545h108l-493 -1545h-108zM30 1099q0 199 65.5 289.5t167.5 90.5q105 0 171.5 -91t66.5 -297q0 -204 -65 -293.5t-169 -89.5q-103 0 -170 92.5t-67 298.5zM152 1091q0 -150 32 -204t88 -54q47 0 74 47q34 62 34 213t-32 206.5t-84 55.5q-50 0 -77 -49
q-35 -63 -35 -215zM625 336q0 200 65.5 290t167.5 90q105 0 171.5 -91t66.5 -297q0 -204 -65 -293t-169 -89q-103 0 -170 92.5t-67 297.5zM747 328q0 -150 31.5 -204t88.5 -54q47 0 77.5 54.5t30.5 206.5q0 151 -32 206t-85 55q-49 0 -76 -48q-35 -64 -35 -216zM1178 336
q0 200 65.5 290t167.5 90q105 0 171.5 -91t66.5 -297q0 -204 -65 -293t-169 -89q-103 0 -170 92.5t-67 297.5zM1300 328q0 -150 32 -204t88 -54q47 0 77.5 54.5t30.5 206.5q0 151 -32 206t-84 55q-50 0 -77 -48q-35 -64 -35 -216z" />
    <glyph glyph-name="guilsinglleft" unicode="&#x2039;" horiz-adv-x="406" 
d="M379 1225l-207 -498l207 -498h-25l-331 498l331 498h25z" />
    <glyph glyph-name="guilsinglright" unicode="&#x203a;" horiz-adv-x="406" 
d="M27 1225h24l332 -498l-332 -498h-24l206 498z" />
    <glyph glyph-name="Euro" unicode="&#x20ac;" horiz-adv-x="1366" 
d="M1294 1499l-14 -424h-20q-28 195 -168.5 286t-286.5 91q-216 0 -339.5 -144t-141.5 -427h835l-18 -88h-821v-31q0 -53 4 -84h802l-18 -88h-778q32 -268 171.5 -407.5t340.5 -139.5q129 0 245.5 61.5t198.5 178.5v-80q-89 -112 -213.5 -176t-306.5 -64q-259 0 -421.5 167
t-201.5 460h-108l18 88h84l-2 35q0 48 4 80h-104l18 88h97q54 290 234.5 458t446.5 168q73 0 128.5 -9.5t156.5 -42.5q91 -30 105 -30q50 0 53 74h20z" />
    <glyph glyph-name="trademark" unicode="&#x2122;" horiz-adv-x="1855" 
d="M201 664v32q47 -2 72 8.5t34.5 43.5t9.5 110v565h-92q-51 0 -81.5 -9t-49.5 -38t-26 -92h-27v189h674v-189h-25q-11 82 -40.5 110.5t-117.5 28.5h-92v-565q0 -77 9 -110t34 -43.5t74 -8.5v-32h-356zM786 1473h238l295 -635l287 635h227v-33q-53 -3 -76.5 -11.5t-31 -33
t-7.5 -84.5v-473q0 -90 19 -115.5t96 -26.5v-32h-346v32q54 0 78 10t32.5 39.5t8.5 92.5v514h-4l-308 -688h-16l-317 675h-5v-508q0 -66 5.5 -91t28.5 -34.5t83 -9.5v-32h-287v32q57 0 80.5 10.5t29 37t5.5 94.5v458q0 61 -5.5 86.5t-28.5 39t-81 18.5v33z" />
    <glyph glyph-name="uni2126" unicode="&#x2126;" horiz-adv-x="1573" 
d="M641 311l33 -311h-604v332h30q20 -78 45.5 -101.5t90.5 -23.5h323l-4 57q-89 27 -145.5 53.5t-106.5 68.5t-90 101q-69 103 -90.5 212.5t-4 212t61.5 180.5q52 95 106.5 140t127.5 87q69 41 169.5 65.5t204.5 24.5q105 0 205.5 -24.5t169.5 -65.5q73 -42 127 -86
t107 -141q44 -78 61.5 -180.5t-4 -212t-90.5 -212.5q-60 -87 -137.5 -135.5t-204.5 -87.5l-4 -57h323q65 0 91.5 24.5t44.5 100.5h30v-332h-604l33 311q25 11 55.5 24.5t61.5 35.5t64 65.5t61 108.5q37 86 47.5 215.5t-22.5 261t-118 215.5q-106 106 -297 106t-296 -106
q-85 -84 -118 -215.5t-22.5 -261t47.5 -215.5q28 -65 60.5 -108t64.5 -66t61 -36t56 -24z" />
    <glyph glyph-name="partialdiff" unicode="&#x2202;" horiz-adv-x="1012" 
d="M213 1366l-80 102q76 34 177 52t194 -4q102 -24 188.5 -89t155.5 -186q42 -73 64 -164t28 -160.5t6 -111.5q0 -47 -10 -143t-34.5 -205.5t-61.5 -188.5q-48 -102 -91.5 -160t-121.5 -102q-102 -56 -208.5 -48.5t-191.5 65.5q-45 31 -80 70.5t-60.5 96.5t-31.5 129
q-9 111 27 204t86 155q58 71 128 109.5t163 35.5q88 -3 147 -31t160 -108q18 99 22 238q3 65 -19.5 168.5t-45.5 156.5q-24 59 -84.5 117.5t-144.5 65.5q-56 5 -89.5 3t-56.5 -9t-64 -26t-71 -32zM750 612q-59 67 -101 99.5t-121 31.5q-117 -3 -196 -110
q-41 -58 -62.5 -110.5t-31 -107t-9.5 -112.5q0 -74 17.5 -144.5t77.5 -111.5q44 -28 83.5 -29t86.5 19q103 45 165 190q36 88 57.5 186.5t33.5 198.5z" />
    <glyph glyph-name="uni2206" unicode="&#x2206;" horiz-adv-x="1253" 
d="M668 1409l577 -1409h-1233zM594 1059l-447 -959h844z" />
    <glyph glyph-name="product" unicode="&#x220f;" horiz-adv-x="1686" 
d="M1446 1288v-1282q0 -69 23.5 -105t67 -48.5t108.5 -12.5v-47h-627v47q100 0 148 33t48 133v1419h-733v-1419q0 -69 23.5 -105t67 -48.5t108.5 -12.5v-47h-629v47q102 0 150.5 33t48.5 133v1282q0 203 -195 203v47h1583v-47q-192 0 -192 -203z" />
    <glyph glyph-name="summation" unicode="&#x2211;" horiz-adv-x="1460" 
d="M1264 1526l12 -326h-41q-32 102 -50.5 139t-79 66t-183.5 29h-539l559 -734l-602 -694h760q83 0 128 19.5t77 66t71 146.5h47q-45 -185 -56 -245t-32 -214q-39 7 -80 14.5t-77 7.5h-1031q-14 0 -36.5 -1.5l-45 -3t-36.5 -1.5l714 815l-710 930q32 -2 105 -8t108 -6h1018z
" />
    <glyph glyph-name="fraction" unicode="&#x2215;" horiz-adv-x="342" 
d="M582 1386h114l-950 -1411h-115z" />
    <glyph glyph-name="periodcentered" unicode="&#x2219;" horiz-adv-x="299" 
d="M150 643q-39 0 -65 26t-26 64q0 39 25.5 65.5t65.5 26.5t66 -26t26 -66q0 -39 -26.5 -64.5t-65.5 -25.5z" />
    <glyph glyph-name="radical" unicode="&#x221a;" horiz-adv-x="1124" 
d="M53 854l-33 68l299 147l404 -825l260 1634l72 -10l-307 -1946l-498 1028z" />
    <glyph glyph-name="infinity" unicode="&#x221e;" horiz-adv-x="1460" 
d="M731 608q75 67 110.5 97t72 53t81.5 43q72 32 143 27.5t131 -41t97 -93.5t43 -123q8 -78 -29.5 -154.5t-110 -123t-161.5 -37.5q-70 7 -134 34.5t-109 61t-87.5 76t-46.5 45.5q-24 -24 -56.5 -56t-76.5 -65.5t-108 -61t-136 -34.5q-89 -9 -161.5 37.5t-110 123
t-29.5 154.5q7 67 44 124t97 93t131 40.5t142 -27.5q45 -20 81.5 -43t72 -53t110.5 -97zM664 541q-88 75 -141.5 112t-102.5 54q-61 22 -110.5 12.5t-84.5 -40.5t-52 -71.5t-17 -77.5q1 -56 37 -101.5t91 -64.5t109 -6q81 19 124 50.5t147 132.5zM799 541q68 -67 105 -99.5
t73 -51.5t92 -32q55 -13 110 6t91 64.5t37 101.5q2 49 -29.5 102.5t-92 78t-143.5 -3.5q-50 -18 -103 -55.5t-140 -110.5z" />
    <glyph glyph-name="integral" unicode="&#x222b;" horiz-adv-x="561" 
d="M389 999l-2 -442q-2 -364 -70 -600q-21 -76 -59 -125q-17 -22 -75.5 -42t-104.5 1q-22 11 -41.5 36t-26.5 44q-12 35 0 65t49 48q34 17 60.5 5t56.5 -46q29 -30 48.5 -4t27.5 82.5t6 130.5q-2 76 -4 141t-4 119.5t-3 163t-1 219.5v295q0 90 2 192t7.5 181.5t16 139.5
t27.5 121q10 34 37.5 75.5t54.5 58.5q26 16 56.5 17.5t59.5 -8.5t44 -20q27 -17 40.5 -60t-13.5 -77q-15 -18 -43 -29.5t-56 -8.5t-47 24q-22 22 -40.5 24t-29 -11.5t-12.5 -33.5q-1 -26 2 -62.5t14 -173t17 -243t6 -197.5z" />
    <glyph glyph-name="approxequal" unicode="&#x2248;" horiz-adv-x="1124" 
d="M1004 807l75 -49q-58 -97 -163.5 -138t-200.5 -14l-307 88q-66 19 -118 11.5t-86.5 -30t-54.5 -48.5t-32 -41l-88 55q79 105 182.5 142t216.5 5l309 -86q68 -20 162 19q66 28 105 86zM1004 498l75 -49q-58 -99 -163.5 -139t-200.5 -13l-307 88q-66 19 -118 11.5
t-86.5 -30t-56 -50.5t-30.5 -40l-88 56q79 105 182.5 142t216.5 5l309 -86q68 -20 162 19q66 28 105 86z" />
    <glyph glyph-name="notequal" unicode="&#x2260;" horiz-adv-x="1124" 
d="M823 1124l101 -57l-156 -279h338v-112h-399l-160 -285h559v-112h-621l-184 -330l-100 57l151 273h-321v112h385l157 285h-542v112h606z" />
    <glyph glyph-name="lessequal" unicode="&#x2264;" horiz-adv-x="1124" 
d="M59 0v113h1018v-113h-1018zM59 711v127l1018 471v-127l-887 -408l887 -407v-127z" />
    <glyph glyph-name="greaterequal" unicode="&#x2265;" horiz-adv-x="1124" 
d="M1077 113v-113h-1018v113h1018zM1077 838v-127l-1018 -471v127l887 407l-887 408v127z" />
    <glyph glyph-name="lozenge" unicode="&#x25ca;" horiz-adv-x="1012" 
d="M557 0h-123l-397 772l397 754h123l397 -754zM831 772l-335 643l-336 -643l336 -661z" />
    <glyph glyph-name="uniF001" unicode="&#xf001;" horiz-adv-x="1662" 
d="M70 1456v17h884v-224h-16q-6 69 -50.5 123.5t-152.5 54.5h-354v-667h330q94 0 128 38.5t44 106.5h16v-334h-16q-6 63 -41.5 103.5t-130.5 40.5h-330v-537q0 -73 42 -117.5t101 -44.5h21v-16h-475v16h20q60 0 99.5 45t39.5 117v1114q0 95 -43 129.5t-96 34.5h-20z
M1587 1473v-17q-66 0 -112 -37t-46 -123v-1118q0 -85 49 -123.5t109 -38.5v-16h-467v16q64 0 110.5 37.5t46.5 124.5v1118q0 92 -46.5 126t-110.5 34v17h467z" />
    <glyph glyph-name="uniF002" unicode="&#xf002;" horiz-adv-x="2068" 
d="M70 1456v17h884v-224h-16q-6 69 -50.5 123.5t-152.5 54.5h-354v-667h330q94 0 128 38.5t44 106.5h16v-334h-16q-6 63 -41.5 103.5t-130.5 40.5h-330v-537q0 -73 42 -117.5t101 -44.5h21v-16h-475v16h20q60 0 99.5 45t39.5 117v1114q0 95 -43 129.5t-96 34.5h-20zM1120 16
h20q54 0 95.5 42.5t41.5 119.5v1112q0 92 -46.5 128t-110.5 38v17h471v-17q-62 -2 -110 -37t-48 -129v-1075q0 -96 48 -133t157 -37h127q83 0 132.5 20t78.5 61t59 116h17l-56 -242h-876v16z" />
    </font>
</defs>
</svg>
